#N canvas 481 213 562 501 10;
#X floatatom -768 34 5 0 0 0 - - -;
#X obj -756 140 * 2;
#X obj -756 118 sin;
#X floatatom -756 183 5 0 0 0 - - -;
#X obj -756 162 *;
#X obj -756 96 /;
#X msg -775 75 3.14;
#X obj -768 54 t b f;
#X obj -902 121 /;
#X floatatom -902 152 5 0 0 0 - - -;
#X msg -917 81 360;
#X obj -917 180 -;
#X floatatom -917 205 5 0 0 0 - - -;
#X text -901 34 number of segments >;
#X obj -810 252 *;
#X floatatom -810 275 5 0 0 0 - - -;
#X obj -810 228 t f f;
#X obj -756 254 *;
#X floatatom -756 281 5 0 0 0 - - -;
#X obj -756 229 t f f;
#X obj -771 303 -;
#X floatatom -771 328 5 0 0 0 - - -;
#X obj -771 354 sqrt;
#X floatatom -771 378 5 0 0 0 - - -;
#X floatatom -727 141 5 0 0 0 - - -;
#X text -690 142 <--radius R1;
#X text -866 382 radius R2 -->;
#X text -919 329 obsah [] 2 odvesny -->;
#X text -943 274 obsah [] prepony -->;
#X text -716 279 <-- obsah [] 1 odvesny;
#X text -864 152 <-- outer angle;
#X text -719 183 <-- side length;
#X obj -892 91 t b f;
#X obj -768 12 inlet;
#X obj -677 14 inlet;
#X obj -771 402 outlet;
#X obj -756 205 / 2;
#X connect 0 0 7 0;
#X connect 0 0 32 0;
#X connect 1 0 4 0;
#X connect 2 0 1 0;
#X connect 3 0 36 0;
#X connect 4 0 3 0;
#X connect 5 0 2 0;
#X connect 6 0 5 0;
#X connect 7 0 6 0;
#X connect 7 0 10 0;
#X connect 7 0 24 0;
#X connect 7 1 5 1;
#X connect 8 0 9 0;
#X connect 9 0 11 1;
#X connect 10 0 8 0;
#X connect 10 0 11 0;
#X connect 11 0 12 0;
#X connect 14 0 15 0;
#X connect 15 0 20 0;
#X connect 16 0 14 0;
#X connect 16 1 14 1;
#X connect 17 0 18 0;
#X connect 18 0 20 1;
#X connect 19 0 17 0;
#X connect 19 1 17 1;
#X connect 20 0 21 0;
#X connect 21 0 22 0;
#X connect 22 0 23 0;
#X connect 23 0 35 0;
#X connect 24 0 4 1;
#X connect 24 0 16 0;
#X connect 32 0 8 0;
#X connect 32 1 8 1;
#X connect 33 0 0 0;
#X connect 34 0 24 0;
#X connect 36 0 19 0;
