#N canvas 395 1164 965 473 10;
#X obj 30 159 gemhead;
#X obj 241 244 line;
#X obj 246 158 del 1;
#X obj 86 186 - 450;
#X obj 86 159 random 900;
#X obj 86 209 / 100;
#X msg 246 185 5 5555;
#X obj 163 208 / 100;
#X obj 163 158 random 700;
#X obj 163 185 - 350;
#X msg 234 214 -80 0;
#X obj 30 126 r hvezdokupa;
#X obj 123 296 r size;
#X obj 31 291 circle 0.03;
#X obj 171 42 r init;
#X msg 165 92 1;
#X obj 30 268 translateXYZ 0 0 -80;
#X obj 295 136 bng 15 250 50 0 empty empty empty 17 7 0 10 -262144
-1 -1;
#X obj 166 70 once;
#X obj 197 108 metro 6666;
#X connect 0 0 16 0;
#X connect 1 0 16 3;
#X connect 2 0 6 0;
#X connect 3 0 5 0;
#X connect 4 0 3 0;
#X connect 5 0 16 1;
#X connect 6 0 1 0;
#X connect 7 0 16 2;
#X connect 8 0 9 0;
#X connect 9 0 7 0;
#X connect 10 0 1 0;
#X connect 11 0 0 0;
#X connect 12 0 13 1;
#X connect 14 0 18 0;
#X connect 15 0 19 0;
#X connect 16 0 13 0;
#X connect 18 0 15 0;
#X connect 19 0 10 0;
#X connect 19 0 2 0;
#X connect 19 0 4 0;
#X connect 19 0 8 0;
#X connect 19 0 17 0;
