#N canvas 869 117 1051 636 10;
#X declare -lib mrpeach;
#X obj -207 -190 cnv 15 260 111 empty empty empty 20 12 0 14 -195568
-66577 0;
#N canvas 551 284 902 490 gemwin 0;
#X obj 132 136 gemwin;
#X obj 66 111 outlet;
#X obj 66 -43 inlet;
#X obj 66 -12 route create;
#X msg 66 30 set destroy;
#X msg 198 112 destroy;
#X msg 132 112 create \, 1;
#X obj 178 -38 inlet;
#X obj 116 -160 vradio 15 1 0 3 empty empty empty 0 -8 0 10 -262144
-1 -1 0;
#X floatatom 116 -109 5 0 0 0 - - -;
#X msg 116 -88 reset \, fullscreen \$1 \, create \, 1;
#X text 138 -163 deactivate fullscreen;
#X text 137 -146 fullscreen on screen 1;
#X text 137 -130 fullscreen on screen 2;
#X msg 454 -70 0;
#X msg 485 -70 2;
#X msg 514 -70 4;
#X text 460 -163 2 - double resolution (4 times the pixel data);
#X text 460 -103 8 - eight-times resolution (64 times the pixel data)
;
#X text 460 -143 4 - quadruple resolution (16 times the pixel data)
;
#X text 460 -183 0 - turn off super sampling for anti-aliasing;
#X text 606 -72 <-- destroy gemwin between clicking these;
#X text 460 -124 5 - quadruple resolution (16 times the pixel data)
;
#X msg 575 -70 8;
#X msg 545 -70 5;
#X msg 496 -20 destroy \, FSAA \$1 \, create \, 1;
#X msg 342 83 cursor 0;
#X msg 365 108 border 0;
#X msg 396 131 topmost 1;
#X msg 149 30 set create;
#X connect 2 0 3 0;
#X connect 3 0 4 0;
#X connect 3 0 6 0;
#X connect 3 1 29 0;
#X connect 3 1 5 0;
#X connect 4 0 1 0;
#X connect 5 0 0 0;
#X connect 6 0 0 0;
#X connect 7 0 0 0;
#X connect 8 0 9 0;
#X connect 9 0 10 0;
#X connect 10 0 0 0;
#X connect 14 0 25 0;
#X connect 15 0 25 0;
#X connect 16 0 25 0;
#X connect 23 0 25 0;
#X connect 24 0 25 0;
#X connect 25 0 0 0;
#X connect 26 0 0 0;
#X connect 27 0 0 0;
#X connect 28 0 0 0;
#X connect 29 0 1 0;
#X restore -201 -152 pd gemwin;
#X msg -201 -171 create;
#X obj -14 24 loadbang;
#X obj -14 49 s bang;
#X obj -37 25 bng 15 250 50 0 empty empty empty 17 7 0 10 -262144 -1
-1;
#X obj -129 129 s slices;
#X floatatom -129 101 5 0 0 0 - - -;
#X obj 1 188 /;
#X obj -25 145 t b f;
#X obj 21 117 t b;
#X msg 16 145 360;
#X text 208 225 ( square root (slices / 2) / 2);
#X text 210 205 diagonal square = a × sqrt / 2;
#X msg 352 -31 draw line;
#X obj 381 11 gemhead;
#X obj 352 93 circle 3;
#X text 212 243 Length of the side of the polygon: a = 2 * r * sin
(PI / n);
#X obj 3 231 / 2;
#X obj 35 227 s one;
#X obj 41 246 s two;
#X obj 1 212 +;
#X floatatom -90 102 5 0 0 0 - - -;
#X text -53 99 <== slices;
#X obj -129 52 metro 11;
#X obj -129 1 t b;
#X msg -161 49 0;
#X obj -129 77 bng 15 250 50 0 empty empty empty 17 7 0 10 -262144
-1 -1;
#X floatatom 226 85 5 0 0 0 - - -;
#X floatatom 254 -46 5 0 0 0 - - -;
#X obj 226 -46 tgl 15 0 empty empty empty 17 7 0 10 -4034 -1 -1 0 1
;
#X obj 259 40 bng 15 250 50 0 empty empty empty 17 7 0 10 -262144 -1
-1;
#N canvas 592 1024 450 300 meter 0;
#X floatatom 128 266 0 0 0 0 - - -;
#X obj 128 178 cputime;
#X obj 128 38 loadbang;
#X obj 128 122 metro 1000;
#X msg 128 66 1;
#X floatatom 128 94 0 0 0 0 - - -;
#X obj 128 150 t b b;
#X obj 128 238 * 0.1;
#X obj 128 207 int;
#X text 173 94 <-- on/off;
#X text 61 294 CPU load in percent;
#X obj 166 266 outlet;
#X connect 1 0 8 0;
#X connect 2 0 4 0;
#X connect 3 0 6 0;
#X connect 4 0 5 0;
#X connect 5 0 3 0;
#X connect 6 0 1 0;
#X connect 6 1 1 1;
#X connect 7 0 0 0;
#X connect 7 0 11 0;
#X connect 8 0 7 0;
#X restore -203 -123 pd meter;
#X floatatom -203 -101 5 0 0 0 - - -;
#N canvas 51 225 1306 546 pool 0;
#X obj 126 49 r one;
#X obj 139 73 r two;
#X obj 65 33 inlet;
#X obj 152 98 r one;
#X obj 165 122 r two;
#X obj 179 146 r one;
#X obj 192 170 r two;
#X obj 205 195 r one;
#X obj 218 219 r two;
#X obj 230 242 r one;
#X obj 243 266 r two;
#X obj 376 49 r one;
#X obj 389 73 r two;
#X obj 402 98 r one;
#X obj 415 122 r two;
#X obj 429 146 r one;
#X obj 442 170 r two;
#X obj 455 195 r one;
#X obj 468 219 r two;
#X obj 480 242 r one;
#X obj 493 266 r two;
#X obj 616 49 r one;
#X obj 629 73 r two;
#X obj 642 98 r one;
#X obj 655 122 r two;
#X obj 669 146 r one;
#X obj 682 170 r two;
#X obj 695 195 r one;
#X obj 708 219 r two;
#X obj 720 242 r one;
#X obj 733 266 r two;
#X obj 866 49 r one;
#X obj 879 73 r two;
#X obj 892 98 r one;
#X obj 905 122 r two;
#X obj 919 146 r one;
#X obj 932 170 r two;
#X obj 945 195 r one;
#X obj 958 219 r two;
#X obj 970 242 r one;
#X obj 983 266 r two;
#X obj 1116 49 r one;
#X obj 1129 73 r two;
#X obj 1142 98 r one;
#X obj 1155 122 r two;
#X obj 1169 146 r one;
#X obj 1182 170 r two;
#X obj 1195 195 r one;
#X obj 1208 219 r two;
#X obj 1220 242 r one;
#X obj 1233 266 r two;
#X obj 81 73 mnoho2 3;
#X obj 571 73 mnoho2 3;
#X obj 94 97 mnoho2 3;
#X obj 107 122 mnoho2 3;
#X obj 120 146 mnoho2 3;
#X obj 134 170 mnoho2 3;
#X obj 147 194 mnoho2 3;
#X obj 160 219 mnoho2 3;
#X obj 173 243 mnoho2 3;
#X obj 185 266 mnoho2 3;
#X obj 198 290 mnoho2 3;
#X obj 331 73 mnoho2 3;
#X obj 344 97 mnoho2 3;
#X obj 357 122 mnoho2 3;
#X obj 370 146 mnoho2 3;
#X obj 384 170 mnoho2 3;
#X obj 397 194 mnoho2 3;
#X obj 410 219 mnoho2 3;
#X obj 423 243 mnoho2 3;
#X obj 435 266 mnoho2 3;
#X obj 448 290 mnoho2 3;
#X obj 584 97 mnoho2 3;
#X obj 597 122 mnoho2 3;
#X obj 610 146 mnoho2 3;
#X obj 624 170 mnoho2 3;
#X obj 637 194 mnoho2 3;
#X obj 650 219 mnoho2 3;
#X obj 663 243 mnoho2 3;
#X obj 675 266 mnoho2 3;
#X obj 688 290 mnoho2 3;
#X obj 821 73 mnoho2 3;
#X obj 834 97 mnoho2 3;
#X obj 847 122 mnoho2 3;
#X obj 860 146 mnoho2 3;
#X obj 874 170 mnoho2 3;
#X obj 887 194 mnoho2 3;
#X obj 900 219 mnoho2 3;
#X obj 913 243 mnoho2 3;
#X obj 925 266 mnoho2 3;
#X obj 938 290 mnoho2 3;
#X obj 1071 73 mnoho2 3;
#X obj 1084 97 mnoho2 3;
#X obj 1097 122 mnoho2 3;
#X obj 1110 146 mnoho2 3;
#X obj 1124 170 mnoho2 3;
#X obj 1137 194 mnoho2 3;
#X obj 1150 219 mnoho2 3;
#X obj 1163 243 mnoho2 3;
#X obj 1175 266 mnoho2 3;
#X obj 1188 290 mnoho2 3;
#X obj 124 339 r one;
#X obj 137 363 r two;
#X obj 150 388 r one;
#X obj 163 412 r two;
#X obj 177 436 r one;
#X obj 190 460 r two;
#X obj 203 485 r one;
#X obj 216 509 r two;
#X obj 228 532 r one;
#X obj 241 556 r two;
#X obj 374 339 r one;
#X obj 387 363 r two;
#X obj 400 388 r one;
#X obj 413 412 r two;
#X obj 427 436 r one;
#X obj 440 460 r two;
#X obj 453 485 r one;
#X obj 466 509 r two;
#X obj 478 532 r one;
#X obj 491 556 r two;
#X obj 79 363 mnoho2 3;
#X obj 92 387 mnoho2 3;
#X obj 105 412 mnoho2 3;
#X obj 118 436 mnoho2 3;
#X obj 132 460 mnoho2 3;
#X obj 145 484 mnoho2 3;
#X obj 158 509 mnoho2 3;
#X obj 171 533 mnoho2 3;
#X obj 183 556 mnoho2 3;
#X obj 196 580 mnoho2 3;
#X obj 329 363 mnoho2 3;
#X obj 342 387 mnoho2 3;
#X obj 355 412 mnoho2 3;
#X obj 368 436 mnoho2 3;
#X obj 382 460 mnoho2 3;
#X obj 395 484 mnoho2 3;
#X obj 408 509 mnoho2 3;
#X obj 421 533 mnoho2 3;
#X obj 433 556 mnoho2 3;
#X obj 446 580 mnoho2 3;
#X obj 621 332 r one;
#X obj 634 356 r two;
#X obj 647 381 r one;
#X obj 660 405 r two;
#X obj 674 429 r one;
#X obj 687 453 r two;
#X obj 700 478 r one;
#X obj 713 502 r two;
#X obj 725 525 r one;
#X obj 738 549 r two;
#X obj 871 332 r one;
#X obj 884 356 r two;
#X obj 897 381 r one;
#X obj 910 405 r two;
#X obj 924 429 r one;
#X obj 937 453 r two;
#X obj 950 478 r one;
#X obj 963 502 r two;
#X obj 975 525 r one;
#X obj 988 549 r two;
#X obj 576 356 mnoho2 3;
#X obj 589 380 mnoho2 3;
#X obj 602 405 mnoho2 3;
#X obj 615 429 mnoho2 3;
#X obj 629 453 mnoho2 3;
#X obj 642 477 mnoho2 3;
#X obj 655 502 mnoho2 3;
#X obj 668 526 mnoho2 3;
#X obj 680 549 mnoho2 3;
#X obj 693 573 mnoho2 3;
#X obj 826 356 mnoho2 3;
#X obj 839 380 mnoho2 3;
#X obj 852 405 mnoho2 3;
#X obj 865 429 mnoho2 3;
#X obj 879 453 mnoho2 3;
#X obj 892 477 mnoho2 3;
#X obj 905 502 mnoho2 3;
#X obj 918 526 mnoho2 3;
#X obj 930 549 mnoho2 3;
#X obj 943 573 mnoho2 3;
#X obj 1084 362 r one;
#X obj 1097 386 r two;
#X obj 1110 411 r one;
#X obj 1123 435 r two;
#X obj 1135 458 r one;
#X obj 1148 482 r two;
#X obj 1039 386 mnoho2 3;
#X obj 1052 410 mnoho2 3;
#X obj 1065 435 mnoho2 3;
#X obj 1078 459 mnoho2 3;
#X obj 1090 482 mnoho2 3;
#X obj 1103 506 mnoho2 3;
#X connect 0 0 51 1;
#X connect 1 0 53 1;
#X connect 2 0 51 0;
#X connect 3 0 54 1;
#X connect 4 0 55 1;
#X connect 5 0 56 1;
#X connect 6 0 57 1;
#X connect 7 0 58 1;
#X connect 8 0 59 1;
#X connect 9 0 60 1;
#X connect 10 0 61 1;
#X connect 11 0 62 1;
#X connect 12 0 63 1;
#X connect 13 0 64 1;
#X connect 14 0 65 1;
#X connect 15 0 66 1;
#X connect 16 0 67 1;
#X connect 17 0 68 1;
#X connect 18 0 69 1;
#X connect 19 0 70 1;
#X connect 20 0 71 1;
#X connect 21 0 52 1;
#X connect 22 0 72 1;
#X connect 23 0 73 1;
#X connect 24 0 74 1;
#X connect 25 0 75 1;
#X connect 26 0 76 1;
#X connect 27 0 77 1;
#X connect 28 0 78 1;
#X connect 29 0 79 1;
#X connect 30 0 80 1;
#X connect 31 0 81 1;
#X connect 32 0 82 1;
#X connect 33 0 83 1;
#X connect 34 0 84 1;
#X connect 35 0 85 1;
#X connect 36 0 86 1;
#X connect 37 0 87 1;
#X connect 38 0 88 1;
#X connect 39 0 89 1;
#X connect 40 0 90 1;
#X connect 41 0 91 1;
#X connect 42 0 92 1;
#X connect 43 0 93 1;
#X connect 44 0 94 1;
#X connect 45 0 95 1;
#X connect 46 0 96 1;
#X connect 47 0 97 1;
#X connect 48 0 98 1;
#X connect 49 0 99 1;
#X connect 50 0 100 1;
#X connect 51 0 53 0;
#X connect 52 0 72 0;
#X connect 53 0 54 0;
#X connect 54 0 55 0;
#X connect 55 0 56 0;
#X connect 56 0 57 0;
#X connect 57 0 58 0;
#X connect 58 0 59 0;
#X connect 59 0 60 0;
#X connect 60 0 61 0;
#X connect 61 0 62 0;
#X connect 62 0 63 0;
#X connect 63 0 64 0;
#X connect 64 0 65 0;
#X connect 65 0 66 0;
#X connect 66 0 67 0;
#X connect 67 0 68 0;
#X connect 68 0 69 0;
#X connect 69 0 70 0;
#X connect 70 0 71 0;
#X connect 71 0 52 0;
#X connect 72 0 73 0;
#X connect 73 0 74 0;
#X connect 74 0 75 0;
#X connect 75 0 76 0;
#X connect 76 0 77 0;
#X connect 77 0 78 0;
#X connect 78 0 79 0;
#X connect 79 0 80 0;
#X connect 80 0 81 0;
#X connect 81 0 82 0;
#X connect 82 0 83 0;
#X connect 83 0 84 0;
#X connect 84 0 85 0;
#X connect 85 0 86 0;
#X connect 86 0 87 0;
#X connect 87 0 88 0;
#X connect 88 0 89 0;
#X connect 89 0 90 0;
#X connect 90 0 91 0;
#X connect 91 0 92 0;
#X connect 92 0 93 0;
#X connect 93 0 94 0;
#X connect 94 0 95 0;
#X connect 95 0 96 0;
#X connect 96 0 97 0;
#X connect 97 0 98 0;
#X connect 98 0 99 0;
#X connect 99 0 100 0;
#X connect 100 0 121 0;
#X connect 101 0 121 1;
#X connect 102 0 122 1;
#X connect 103 0 123 1;
#X connect 104 0 124 1;
#X connect 105 0 125 1;
#X connect 106 0 126 1;
#X connect 107 0 127 1;
#X connect 108 0 128 1;
#X connect 109 0 129 1;
#X connect 110 0 130 1;
#X connect 111 0 131 1;
#X connect 112 0 132 1;
#X connect 113 0 133 1;
#X connect 114 0 134 1;
#X connect 115 0 135 1;
#X connect 116 0 136 1;
#X connect 117 0 137 1;
#X connect 118 0 138 1;
#X connect 119 0 139 1;
#X connect 120 0 140 1;
#X connect 121 0 122 0;
#X connect 122 0 123 0;
#X connect 123 0 124 0;
#X connect 124 0 125 0;
#X connect 125 0 126 0;
#X connect 126 0 127 0;
#X connect 127 0 128 0;
#X connect 128 0 129 0;
#X connect 129 0 130 0;
#X connect 130 0 131 0;
#X connect 131 0 132 0;
#X connect 132 0 133 0;
#X connect 133 0 134 0;
#X connect 134 0 135 0;
#X connect 135 0 136 0;
#X connect 136 0 137 0;
#X connect 137 0 138 0;
#X connect 138 0 139 0;
#X connect 139 0 140 0;
#X connect 140 0 161 0;
#X connect 141 0 161 1;
#X connect 142 0 162 1;
#X connect 143 0 163 1;
#X connect 144 0 164 1;
#X connect 145 0 165 1;
#X connect 146 0 166 1;
#X connect 147 0 167 1;
#X connect 148 0 168 1;
#X connect 149 0 169 1;
#X connect 150 0 170 1;
#X connect 151 0 171 1;
#X connect 152 0 172 1;
#X connect 153 0 173 1;
#X connect 154 0 174 1;
#X connect 155 0 175 1;
#X connect 156 0 176 1;
#X connect 157 0 177 1;
#X connect 158 0 178 1;
#X connect 159 0 179 1;
#X connect 160 0 180 1;
#X connect 161 0 162 0;
#X connect 162 0 163 0;
#X connect 163 0 164 0;
#X connect 164 0 165 0;
#X connect 165 0 166 0;
#X connect 166 0 167 0;
#X connect 167 0 168 0;
#X connect 168 0 169 0;
#X connect 169 0 170 0;
#X connect 170 0 171 0;
#X connect 171 0 172 0;
#X connect 172 0 173 0;
#X connect 173 0 174 0;
#X connect 174 0 175 0;
#X connect 175 0 176 0;
#X connect 176 0 177 0;
#X connect 177 0 178 0;
#X connect 178 0 179 0;
#X connect 179 0 180 0;
#X connect 180 0 187 0;
#X connect 181 0 187 1;
#X connect 182 0 188 1;
#X connect 183 0 189 1;
#X connect 184 0 190 1;
#X connect 185 0 191 1;
#X connect 186 0 192 1;
#X connect 187 0 188 0;
#X connect 188 0 189 0;
#X connect 189 0 190 0;
#X connect 190 0 191 0;
#X connect 191 0 192 0;
#X restore 56 196 pd pool;
#X obj 226 -24 metro 500;
#X msg -135 -174 dimen 1024 768 \, create \, 1;
#X obj -22 -101 s x;
#X obj 18 -101 s y;
#X floatatom -22 -121 5 0 0 0 - - -;
#X floatatom 18 -121 5 0 0 0 - - -;
#X obj 381 55 translateXYZ;
#X obj 404 33 r x;
#X obj 436 34 r y;
#X obj -161 27 del 111;
#X msg 56 141 3;
#X obj 284 39 bng 15 250 50 0 empty empty empty 17 7 0 10 -262144 -1
-1;
#X msg -134 -150 reset;
#X obj 56 119 r bang;
#X obj 352 -54 r bang;
#X obj 301 33 cnv 15 55 26 empty empty empty 20 12 0 14 -258113 -66577
0;
#X floatatom 306 38 5 0 0 0 - - -;
#X obj 48 161 cnv 15 55 26 empty empty empty 20 12 0 14 -258113 -66577
0;
#X floatatom 56 165 5 0 0 0 - - -;
#X text 112 166 <<-- radius R1;
#X text -167 -101 <<-- % CPU LOAD;
#X obj -78 -124 s onoff;
#X obj -78 -144 tgl 15 0 empty empty empty 17 7 0 10 -262144 -1 -1
0 1;
#X obj 381 -10 r onoff;
#X obj 205 63 bng 15 250 50 0 empty empty empty 17 7 0 10 -262144 -1
-1;
#X floatatom 141 -22 5 0 0 0 - - -;
#X floatatom 169 -217 5 0 0 0 - - -;
#X obj 141 -217 tgl 15 0 empty empty empty 17 7 0 10 -262144 -1 -1
0 1;
#X obj 174 -131 bng 15 250 50 0 empty empty empty 17 7 0 10 -262144
-1 -1;
#X obj 141 -195 metro 500;
#X obj 199 -132 bng 15 250 50 0 empty empty empty 17 7 0 10 -262144
-1 -1;
#X obj 216 -138 cnv 15 55 26 empty empty empty 20 12 0 14 -258113 -66577
0;
#X floatatom 221 -133 5 0 0 0 - - -;
#X obj 120 -108 bng 15 250 50 0 empty empty empty 17 7 0 10 -262144
-1 -1;
#X obj 141 -80 / 10;
#X floatatom 184 -80 5 0 0 0 - - -;
#X obj 141 -52 i;
#X obj 296 -115 sel 4;
#X msg 296 -89 0;
#X msg 108 -155 updown;
#X obj 140 -110 counter 40 1024;
#N canvas 634 156 878 395 osc 0;
#X floatatom 111 131 3 0 0 0 - - -;
#X floatatom 138 131 3 0 0 0 - - -;
#X floatatom 165 131 3 0 0 0 - - -;
#X floatatom 192 131 3 0 0 0 - - -;
#X text 71 130 from;
#X obj -56 184 unpackOSC;
#X obj 416 129 packOSC;
#X floatatom 503 204 10 0 0 1 millisecond_delay - -;
#X obj -56 211 pipelist;
#X obj 111 107 unpack 0 0 0 0 0;
#X floatatom 220 131 8 0 0 0 - - -;
#X obj 46 84 route received from;
#X floatatom 46 152 5 0 0 0 - - -;
#X text 7 151 bytes;
#X text 1 204 If the OSC packet has a timetag \, [pipelist] will delay
it until the time occurs;
#X obj 13 28 import mrpeach;
#X text 44 167 [unpackOSC] parses lists of floats (only integers on
[0..255]) as OSC packets.;
#X obj -56 60 udpreceive 8000;
#X obj -56 238 s oscmain;
#X obj 69 260 print OSC;
#X connect 5 0 8 0;
#X connect 5 1 7 0;
#X connect 5 1 8 1;
#X connect 8 0 18 0;
#X connect 9 0 0 0;
#X connect 9 1 1 0;
#X connect 9 2 2 0;
#X connect 9 3 3 0;
#X connect 9 4 10 0;
#X connect 11 0 12 0;
#X connect 11 1 9 0;
#X connect 17 0 5 0;
#X connect 17 0 19 0;
#X connect 17 1 11 0;
#X restore 2 -150 pd osc;
#X msg 297 4 down;
#X obj 226 62 counter 4 55;
#X obj 296 -170 r slices;
#X obj 296 -142 spigot;
#X obj 343 -141 tgl 15 0 empty empty empty 17 7 0 10 -258113 -1 -1
1 1;
#X obj 367 -170 r bang;
#X msg 367 -143 1;
#N canvas 307 295 783 543 udp 1;
#X floatatom 424 314 3 0 0 0 - - -;
#X floatatom 560 232 3 0 0 0 - - -;
#X floatatom 478 314 3 0 0 0 - - -;
#X floatatom 505 314 3 0 0 0 - - -;
#X floatatom 532 315 5 0 0 0 - - -;
#X obj 424 288 unpack 0 0 0 0 0;
#X msg 203 100 status;
#X floatatom 303 235 9 0 0 0 - - -;
#X obj 484 261 tgl 15 0 empty empty empty 17 7 0 10 -4034 -1 -1 0 1
;
#X floatatom 363 261 9 0 0 0 - - -;
#X text 0 100 get status on right outlet:;
#X text 196 235 bytes received:;
#X text 211 259 total bytes received:;
#X text 381 313 from:;
#X text 303 88 Specify a multicast address (from 224.0.0.0 to 239.255.255.255)
to use multicasting;
#X obj 201 304 spigot;
#X obj 238 280 tgl 15 0 empty empty enable_print: -77 8 0 10 -4034
-1 -1 0 1;
#X obj 303 202 route received total from multicast;
#X text 286 137 change port to listen on;
#X text 496 370 Martin Peach 2010/10/15;
#X obj 199 170 udpreceive 7400;
#X msg 214 138 port 7400;
#X obj 298 420 print konec;
#X obj 200 329 print test;
#X obj 97 385 unpack f f f f f f f f f f f f f;
#X obj 157 467 outlet;
#X floatatom 262 475 5 0 0 0 - - -;
#X connect 5 0 0 0;
#X connect 5 1 1 0;
#X connect 5 2 2 0;
#X connect 5 3 3 0;
#X connect 5 4 4 0;
#X connect 6 0 20 0;
#X connect 15 0 23 0;
#X connect 16 0 15 1;
#X connect 17 0 7 0;
#X connect 17 1 9 0;
#X connect 17 2 5 0;
#X connect 17 3 8 0;
#X connect 20 0 15 0;
#X connect 20 0 24 0;
#X connect 20 1 17 0;
#X connect 21 0 20 0;
#X connect 24 11 22 0;
#X connect 24 11 25 0;
#X connect 24 11 26 0;
#X restore 478 -121 pd udp;
#X msg 406 153;
#X obj 249 163 sel 1;
#X obj 250 139 > 64;
#X obj 96 56 limit 4 64;
#X obj -27 -65 <= 3;
#X msg -29 -12 0;
#X obj -28 -39 sel 1;
#X connect 1 0 2 0;
#X connect 2 0 1 0;
#X connect 3 0 4 0;
#X connect 5 0 4 0;
#X connect 7 0 6 0;
#X connect 8 0 21 0;
#X connect 9 0 8 0;
#X connect 9 1 8 1;
#X connect 10 0 11 0;
#X connect 10 0 53 0;
#X connect 11 0 8 0;
#X connect 14 0 16 0;
#X connect 15 0 41 0;
#X connect 18 0 20 0;
#X connect 21 0 19 0;
#X connect 21 0 18 0;
#X connect 22 0 7 0;
#X connect 22 0 6 0;
#X connect 22 0 10 0;
#X connect 22 0 9 0;
#X connect 22 0 25 0;
#X connect 24 0 27 0;
#X connect 25 0 24 0;
#X connect 25 0 44 0;
#X connect 26 0 24 0;
#X connect 27 0 7 0;
#X connect 28 0 88 0;
#X connect 29 0 35 1;
#X connect 30 0 35 0;
#X connect 31 0 78 2;
#X connect 32 0 33 0;
#X connect 35 0 78 0;
#X connect 36 0 1 1;
#X connect 39 0 37 0;
#X connect 40 0 38 0;
#X connect 41 0 16 0;
#X connect 42 0 41 1;
#X connect 43 0 41 2;
#X connect 44 0 26 0;
#X connect 45 0 53 0;
#X connect 46 0 78 4;
#X connect 47 0 1 1;
#X connect 48 0 45 0;
#X connect 49 0 14 0;
#X connect 49 0 77 0;
#X connect 51 0 78 4;
#X connect 53 0 34 0;
#X connect 53 0 16 1;
#X connect 57 0 56 0;
#X connect 58 0 15 0;
#X connect 59 0 78 0;
#X connect 60 0 22 0;
#X connect 61 0 64 1;
#X connect 62 0 64 0;
#X connect 63 0 75 2;
#X connect 64 0 75 0;
#X connect 65 0 75 4;
#X connect 67 0 75 4;
#X connect 68 0 75 0;
#X connect 69 0 71 0;
#X connect 71 0 60 0;
#X connect 72 0 73 0;
#X connect 73 0 30 0;
#X connect 74 0 75 0;
#X connect 75 0 69 0;
#X connect 75 0 70 0;
#X connect 77 0 78 0;
#X connect 78 0 28 0;
#X connect 79 0 80 0;
#X connect 80 0 72 0;
#X connect 81 0 80 1;
#X connect 82 0 83 0;
#X connect 83 0 81 0;
#X connect 84 0 88 0;
#X connect 84 0 89 0;
#X connect 88 0 22 0;
#X connect 89 0 91 0;
#X connect 90 0 57 0;
#X connect 91 0 90 0;
