#N canvas 394 849 1147 701 12;
#X declare -lib mrpeach;
#N canvas 78 1043 902 490 gemwin 1;
#X obj 132 136 gemwin;
#X msg 166 37 destroy;
#X msg 79 34 create \, 1;
#X obj 53 -183 inlet;
#X obj 261 -186 vradio 15 1 0 3 empty empty empty 0 -8 0 10 -262144
-1 -1 0;
#X text 283 -189 deactivate fullscreen;
#X text 282 -172 fullscreen on screen 1;
#X text 282 -156 fullscreen on screen 2;
#X msg 454 -70 0;
#X msg 485 -70 2;
#X msg 514 -70 4;
#X text 460 -163 2 - double resolution (4 times the pixel data);
#X text 460 -103 8 - eight-times resolution (64 times the pixel data)
;
#X text 460 -143 4 - quadruple resolution (16 times the pixel data)
;
#X text 460 -183 0 - turn off super sampling for anti-aliasing;
#X text 606 -72 <-- destroy gemwin between clicking these;
#X text 460 -124 5 - quadruple resolution (16 times the pixel data)
;
#X msg 575 -70 8;
#X msg 545 -70 5;
#X msg 496 -20 destroy \, FSAA \$1 \, create \, 1;
#X msg 709 35 cursor 0;
#X msg 703 59 border 0;
#X msg 703 86 topmost 1;
#X obj 160 194 del 3333;
#X msg 156 227 destroy;
#X obj 492 18 bng 15 250 50 0 empty empty empty 17 7 0 10 -262144 -1
-1;
#X obj 494 37 t b b b b b b b;
#X msg 704 141 create \, 1;
#X msg 705 113 dimen 1024 768;
#X msg 663 205 fullscreen 2 \, create \, 1;
#X msg 45 -45 reset \, create \, 1;
#X obj 89 -144 sel 0 1 2 3;
#X text 454 247 perspec <left> <right> <bottom> <top> <front> <back>::
;
#X text 453 265 set the clipping planes of the view-point. this might
be what you need \, if all the objects that re further away than 20
units suddenly disappear;
#X text 453 307 default: -1 1 -1 1 1 20;
#X text 452 325 if you want to remove perspective \, see [ortho];
#X obj 242 281 r bang;
#X msg 243 310 perspec -1 1 -1 1 1 140;
#X connect 1 0 0 0;
#X connect 2 0 0 0;
#X connect 3 0 31 0;
#X connect 8 0 19 0;
#X connect 9 0 19 0;
#X connect 10 0 19 0;
#X connect 17 0 19 0;
#X connect 18 0 19 0;
#X connect 19 0 0 0;
#X connect 20 0 0 0;
#X connect 21 0 0 0;
#X connect 22 0 0 0;
#X connect 23 0 24 0;
#X connect 24 0 0 0;
#X connect 25 0 26 0;
#X connect 26 2 29 0;
#X connect 26 3 28 0;
#X connect 26 4 22 0;
#X connect 26 5 21 0;
#X connect 26 6 20 0;
#X connect 26 6 37 0;
#X connect 28 0 0 0;
#X connect 29 0 0 0;
#X connect 30 0 0 0;
#X connect 31 0 1 0;
#X connect 31 1 30 0;
#X connect 31 2 25 0;
#X connect 31 3 23 0;
#X connect 36 0 37 0;
#X connect 37 0 0 0;
#X restore -201 -152 pd gemwin;
#X obj -176 -67 loadbang;
#X obj -176 -42 s bang;
#X obj -199 -66 bng 15 250 50 0 empty empty empty 17 7 0 10 -262144
-1 -1;
#X obj -129 129 s slices;
#X floatatom -129 101 5 0 0 0 - - -;
#X obj 1 192 /;
#X obj -25 149 t b f;
#X obj 21 121 t b;
#X msg 16 149 360;
#X text 455 272 ( square root (slices / 2) / 2);
#X text 457 252 diagonal square = a × sqrt / 2;
#X msg -160 176 draw line;
#X obj -131 218 gemhead;
#X obj -160 300 circle 3;
#X text 459 290 Length of the side of the polygon: a = 2 * r * sin
(PI / n);
#X obj 3 235 / 2;
#X obj 35 231 s one;
#X obj 41 250 s two;
#X obj 1 216 +;
#X floatatom -90 102 5 0 0 0 - - -;
#X text -53 99 <== slices;
#X obj -129 52 metro 11;
#X obj -129 1 t b;
#X msg -161 49 0;
#X obj -129 77 bng 15 250 50 0 empty empty empty 17 7 0 10 -262144
-1 -1;
#N canvas 592 1024 450 300 meter 0;
#X floatatom 128 266 0 0 0 0 - - -;
#X obj 128 178 cputime;
#X obj 128 38 loadbang;
#X obj 128 122 metro 1000;
#X msg 128 66 1;
#X floatatom 128 94 0 0 0 0 - - -;
#X obj 128 150 t b b;
#X obj 128 238 * 0.1;
#X obj 128 207 int;
#X text 173 94 <-- on/off;
#X text 61 294 CPU load in percent;
#X obj 166 266 outlet;
#X connect 1 0 8 0;
#X connect 2 0 4 0;
#X connect 3 0 6 0;
#X connect 4 0 5 0;
#X connect 5 0 3 0;
#X connect 6 0 1 0;
#X connect 6 1 1 1;
#X connect 7 0 0 0;
#X connect 7 0 11 0;
#X connect 8 0 7 0;
#X restore -203 -123 pd meter;
#X floatatom -203 -101 5 0 0 0 - - -;
#N canvas 45 1115 1306 546 pool 0;
#X obj 126 49 r one;
#X obj 139 73 r two;
#X obj 65 33 inlet;
#X obj 152 98 r one;
#X obj 165 122 r two;
#X obj 179 146 r one;
#X obj 192 170 r two;
#X obj 205 195 r one;
#X obj 218 219 r two;
#X obj 230 242 r one;
#X obj 243 266 r two;
#X obj 376 49 r one;
#X obj 389 73 r two;
#X obj 402 98 r one;
#X obj 415 122 r two;
#X obj 429 146 r one;
#X obj 442 170 r two;
#X obj 455 195 r one;
#X obj 468 219 r two;
#X obj 480 242 r one;
#X obj 493 266 r two;
#X obj 616 49 r one;
#X obj 629 73 r two;
#X obj 642 98 r one;
#X obj 655 122 r two;
#X obj 669 146 r one;
#X obj 682 170 r two;
#X obj 695 195 r one;
#X obj 708 219 r two;
#X obj 720 242 r one;
#X obj 733 266 r two;
#X obj 866 49 r one;
#X obj 879 73 r two;
#X obj 892 98 r one;
#X obj 905 122 r two;
#X obj 919 146 r one;
#X obj 932 170 r two;
#X obj 945 195 r one;
#X obj 958 219 r two;
#X obj 970 242 r one;
#X obj 983 266 r two;
#X obj 1116 49 r one;
#X obj 1129 73 r two;
#X obj 1142 98 r one;
#X obj 1155 122 r two;
#X obj 1169 146 r one;
#X obj 1182 170 r two;
#X obj 1195 195 r one;
#X obj 1208 219 r two;
#X obj 1220 242 r one;
#X obj 1233 266 r two;
#X obj 81 73 mnoho2 3;
#X obj 571 73 mnoho2 3;
#X obj 94 97 mnoho2 3;
#X obj 107 122 mnoho2 3;
#X obj 120 146 mnoho2 3;
#X obj 134 170 mnoho2 3;
#X obj 147 194 mnoho2 3;
#X obj 160 219 mnoho2 3;
#X obj 173 243 mnoho2 3;
#X obj 185 266 mnoho2 3;
#X obj 198 290 mnoho2 3;
#X obj 331 73 mnoho2 3;
#X obj 344 97 mnoho2 3;
#X obj 357 122 mnoho2 3;
#X obj 370 146 mnoho2 3;
#X obj 384 170 mnoho2 3;
#X obj 397 194 mnoho2 3;
#X obj 410 219 mnoho2 3;
#X obj 423 243 mnoho2 3;
#X obj 435 266 mnoho2 3;
#X obj 448 290 mnoho2 3;
#X obj 584 97 mnoho2 3;
#X obj 597 122 mnoho2 3;
#X obj 610 146 mnoho2 3;
#X obj 624 170 mnoho2 3;
#X obj 637 194 mnoho2 3;
#X obj 650 219 mnoho2 3;
#X obj 663 243 mnoho2 3;
#X obj 675 266 mnoho2 3;
#X obj 688 290 mnoho2 3;
#X obj 821 73 mnoho2 3;
#X obj 834 97 mnoho2 3;
#X obj 847 122 mnoho2 3;
#X obj 860 146 mnoho2 3;
#X obj 874 170 mnoho2 3;
#X obj 887 194 mnoho2 3;
#X obj 900 219 mnoho2 3;
#X obj 913 243 mnoho2 3;
#X obj 925 266 mnoho2 3;
#X obj 938 290 mnoho2 3;
#X obj 1071 73 mnoho2 3;
#X obj 1084 97 mnoho2 3;
#X obj 1097 122 mnoho2 3;
#X obj 1110 146 mnoho2 3;
#X obj 1124 170 mnoho2 3;
#X obj 1137 194 mnoho2 3;
#X obj 1150 219 mnoho2 3;
#X obj 1163 243 mnoho2 3;
#X obj 1175 266 mnoho2 3;
#X obj 1188 290 mnoho2 3;
#X obj 124 339 r one;
#X obj 137 363 r two;
#X obj 150 388 r one;
#X obj 163 412 r two;
#X obj 177 436 r one;
#X obj 190 460 r two;
#X obj 203 485 r one;
#X obj 216 509 r two;
#X obj 228 532 r one;
#X obj 241 556 r two;
#X obj 374 339 r one;
#X obj 387 363 r two;
#X obj 400 388 r one;
#X obj 413 412 r two;
#X obj 427 436 r one;
#X obj 440 460 r two;
#X obj 453 485 r one;
#X obj 466 509 r two;
#X obj 478 532 r one;
#X obj 491 556 r two;
#X obj 79 363 mnoho2 3;
#X obj 92 387 mnoho2 3;
#X obj 105 412 mnoho2 3;
#X obj 118 436 mnoho2 3;
#X obj 132 460 mnoho2 3;
#X obj 145 484 mnoho2 3;
#X obj 158 509 mnoho2 3;
#X obj 171 533 mnoho2 3;
#X obj 183 556 mnoho2 3;
#X obj 196 580 mnoho2 3;
#X obj 329 363 mnoho2 3;
#X obj 342 387 mnoho2 3;
#X obj 355 412 mnoho2 3;
#X obj 368 436 mnoho2 3;
#X obj 382 460 mnoho2 3;
#X obj 395 484 mnoho2 3;
#X obj 408 509 mnoho2 3;
#X obj 421 533 mnoho2 3;
#X obj 433 556 mnoho2 3;
#X obj 446 580 mnoho2 3;
#X obj 621 332 r one;
#X obj 634 356 r two;
#X obj 647 381 r one;
#X obj 660 405 r two;
#X obj 674 429 r one;
#X obj 687 453 r two;
#X obj 700 478 r one;
#X obj 713 502 r two;
#X obj 725 525 r one;
#X obj 738 549 r two;
#X obj 871 332 r one;
#X obj 884 356 r two;
#X obj 897 381 r one;
#X obj 910 405 r two;
#X obj 924 429 r one;
#X obj 937 453 r two;
#X obj 950 478 r one;
#X obj 963 502 r two;
#X obj 975 525 r one;
#X obj 988 549 r two;
#X obj 576 356 mnoho2 3;
#X obj 589 380 mnoho2 3;
#X obj 602 405 mnoho2 3;
#X obj 615 429 mnoho2 3;
#X obj 629 453 mnoho2 3;
#X obj 642 477 mnoho2 3;
#X obj 655 502 mnoho2 3;
#X obj 668 526 mnoho2 3;
#X obj 680 549 mnoho2 3;
#X obj 693 573 mnoho2 3;
#X obj 826 356 mnoho2 3;
#X obj 839 380 mnoho2 3;
#X obj 852 405 mnoho2 3;
#X obj 865 429 mnoho2 3;
#X obj 879 453 mnoho2 3;
#X obj 892 477 mnoho2 3;
#X obj 905 502 mnoho2 3;
#X obj 918 526 mnoho2 3;
#X obj 930 549 mnoho2 3;
#X obj 943 573 mnoho2 3;
#X obj 1084 362 r one;
#X obj 1097 386 r two;
#X obj 1110 411 r one;
#X obj 1123 435 r two;
#X obj 1135 458 r one;
#X obj 1148 482 r two;
#X obj 1039 386 mnoho2 3;
#X obj 1052 410 mnoho2 3;
#X obj 1065 435 mnoho2 3;
#X obj 1078 459 mnoho2 3;
#X obj 1090 482 mnoho2 3;
#X obj 1103 506 mnoho2 3;
#X connect 0 0 51 1;
#X connect 1 0 53 1;
#X connect 2 0 51 0;
#X connect 3 0 54 1;
#X connect 4 0 55 1;
#X connect 5 0 56 1;
#X connect 6 0 57 1;
#X connect 7 0 58 1;
#X connect 8 0 59 1;
#X connect 9 0 60 1;
#X connect 10 0 61 1;
#X connect 11 0 62 1;
#X connect 12 0 63 1;
#X connect 13 0 64 1;
#X connect 14 0 65 1;
#X connect 15 0 66 1;
#X connect 16 0 67 1;
#X connect 17 0 68 1;
#X connect 18 0 69 1;
#X connect 19 0 70 1;
#X connect 20 0 71 1;
#X connect 21 0 52 1;
#X connect 22 0 72 1;
#X connect 23 0 73 1;
#X connect 24 0 74 1;
#X connect 25 0 75 1;
#X connect 26 0 76 1;
#X connect 27 0 77 1;
#X connect 28 0 78 1;
#X connect 29 0 79 1;
#X connect 30 0 80 1;
#X connect 31 0 81 1;
#X connect 32 0 82 1;
#X connect 33 0 83 1;
#X connect 34 0 84 1;
#X connect 35 0 85 1;
#X connect 36 0 86 1;
#X connect 37 0 87 1;
#X connect 38 0 88 1;
#X connect 39 0 89 1;
#X connect 40 0 90 1;
#X connect 41 0 91 1;
#X connect 42 0 92 1;
#X connect 43 0 93 1;
#X connect 44 0 94 1;
#X connect 45 0 95 1;
#X connect 46 0 96 1;
#X connect 47 0 97 1;
#X connect 48 0 98 1;
#X connect 49 0 99 1;
#X connect 50 0 100 1;
#X connect 51 0 53 0;
#X connect 52 0 72 0;
#X connect 53 0 54 0;
#X connect 54 0 55 0;
#X connect 55 0 56 0;
#X connect 56 0 57 0;
#X connect 57 0 58 0;
#X connect 58 0 59 0;
#X connect 59 0 60 0;
#X connect 60 0 61 0;
#X connect 61 0 62 0;
#X connect 62 0 63 0;
#X connect 63 0 64 0;
#X connect 64 0 65 0;
#X connect 65 0 66 0;
#X connect 66 0 67 0;
#X connect 67 0 68 0;
#X connect 68 0 69 0;
#X connect 69 0 70 0;
#X connect 70 0 71 0;
#X connect 71 0 52 0;
#X connect 72 0 73 0;
#X connect 73 0 74 0;
#X connect 74 0 75 0;
#X connect 75 0 76 0;
#X connect 76 0 77 0;
#X connect 77 0 78 0;
#X connect 78 0 79 0;
#X connect 79 0 80 0;
#X connect 80 0 81 0;
#X connect 81 0 82 0;
#X connect 82 0 83 0;
#X connect 83 0 84 0;
#X connect 84 0 85 0;
#X connect 85 0 86 0;
#X connect 86 0 87 0;
#X connect 87 0 88 0;
#X connect 88 0 89 0;
#X connect 89 0 90 0;
#X connect 90 0 91 0;
#X connect 91 0 92 0;
#X connect 92 0 93 0;
#X connect 93 0 94 0;
#X connect 94 0 95 0;
#X connect 95 0 96 0;
#X connect 96 0 97 0;
#X connect 97 0 98 0;
#X connect 98 0 99 0;
#X connect 99 0 100 0;
#X connect 100 0 121 0;
#X connect 101 0 121 1;
#X connect 102 0 122 1;
#X connect 103 0 123 1;
#X connect 104 0 124 1;
#X connect 105 0 125 1;
#X connect 106 0 126 1;
#X connect 107 0 127 1;
#X connect 108 0 128 1;
#X connect 109 0 129 1;
#X connect 110 0 130 1;
#X connect 111 0 131 1;
#X connect 112 0 132 1;
#X connect 113 0 133 1;
#X connect 114 0 134 1;
#X connect 115 0 135 1;
#X connect 116 0 136 1;
#X connect 117 0 137 1;
#X connect 118 0 138 1;
#X connect 119 0 139 1;
#X connect 120 0 140 1;
#X connect 121 0 122 0;
#X connect 122 0 123 0;
#X connect 123 0 124 0;
#X connect 124 0 125 0;
#X connect 125 0 126 0;
#X connect 126 0 127 0;
#X connect 127 0 128 0;
#X connect 128 0 129 0;
#X connect 129 0 130 0;
#X connect 130 0 131 0;
#X connect 131 0 132 0;
#X connect 132 0 133 0;
#X connect 133 0 134 0;
#X connect 134 0 135 0;
#X connect 135 0 136 0;
#X connect 136 0 137 0;
#X connect 137 0 138 0;
#X connect 138 0 139 0;
#X connect 139 0 140 0;
#X connect 140 0 161 0;
#X connect 141 0 161 1;
#X connect 142 0 162 1;
#X connect 143 0 163 1;
#X connect 144 0 164 1;
#X connect 145 0 165 1;
#X connect 146 0 166 1;
#X connect 147 0 167 1;
#X connect 148 0 168 1;
#X connect 149 0 169 1;
#X connect 150 0 170 1;
#X connect 151 0 171 1;
#X connect 152 0 172 1;
#X connect 153 0 173 1;
#X connect 154 0 174 1;
#X connect 155 0 175 1;
#X connect 156 0 176 1;
#X connect 157 0 177 1;
#X connect 158 0 178 1;
#X connect 159 0 179 1;
#X connect 160 0 180 1;
#X connect 161 0 162 0;
#X connect 162 0 163 0;
#X connect 163 0 164 0;
#X connect 164 0 165 0;
#X connect 165 0 166 0;
#X connect 166 0 167 0;
#X connect 167 0 168 0;
#X connect 168 0 169 0;
#X connect 169 0 170 0;
#X connect 170 0 171 0;
#X connect 171 0 172 0;
#X connect 172 0 173 0;
#X connect 173 0 174 0;
#X connect 174 0 175 0;
#X connect 175 0 176 0;
#X connect 176 0 177 0;
#X connect 177 0 178 0;
#X connect 178 0 179 0;
#X connect 179 0 180 0;
#X connect 180 0 187 0;
#X connect 181 0 187 1;
#X connect 182 0 188 1;
#X connect 183 0 189 1;
#X connect 184 0 190 1;
#X connect 185 0 191 1;
#X connect 186 0 192 1;
#X connect 187 0 188 0;
#X connect 188 0 189 0;
#X connect 189 0 190 0;
#X connect 190 0 191 0;
#X connect 191 0 192 0;
#X restore 83 210 pd pool;
#X obj -22 -101 s x;
#X obj 18 -101 s y;
#X floatatom -22 -121 5 0 0 0 - - -;
#X floatatom 18 -121 5 0 0 0 - - -;
#X obj -131 262 translateXYZ;
#X obj -108 240 r x;
#X obj -76 241 r y;
#X obj -161 27 del 111;
#X msg 56 145 3;
#X obj 56 123 r bang;
#X obj -160 153 r bang;
#X obj 48 165 cnv 15 55 26 empty empty empty 20 12 0 14 -258113 -66577
0;
#X floatatom 56 169 5 0 0 0 - - -;
#X text 112 166 <<-- radius R1;
#X text -167 -101 <<-- % CPU LOAD;
#X obj -16 66 s onoff;
#X obj -131 197 r onoff;
#N canvas 634 156 878 395 osc 0;
#X floatatom 111 131 3 0 0 0 - - -;
#X floatatom 138 131 3 0 0 0 - - -;
#X floatatom 165 131 3 0 0 0 - - -;
#X floatatom 192 131 3 0 0 0 - - -;
#X text 71 130 from;
#X obj -56 184 unpackOSC;
#X obj 416 129 packOSC;
#X floatatom 503 204 10 0 0 1 millisecond_delay - -;
#X obj -56 211 pipelist;
#X obj 111 107 unpack 0 0 0 0 0;
#X floatatom 220 131 8 0 0 0 - - -;
#X obj 46 84 route received from;
#X floatatom 46 152 5 0 0 0 - - -;
#X text 7 151 bytes;
#X text 1 204 If the OSC packet has a timetag \, [pipelist] will delay
it until the time occurs;
#X obj 13 28 import mrpeach;
#X text 44 167 [unpackOSC] parses lists of floats (only integers on
[0..255]) as OSC packets.;
#X obj -56 60 udpreceive 8000;
#X obj -56 238 s oscmain;
#X obj 69 260 print OSC;
#X connect 5 0 8 0;
#X connect 5 1 7 0;
#X connect 5 1 8 1;
#X connect 8 0 18 0;
#X connect 9 0 0 0;
#X connect 9 1 1 0;
#X connect 9 2 2 0;
#X connect 9 3 3 0;
#X connect 9 4 10 0;
#X connect 11 0 12 0;
#X connect 11 1 9 0;
#X connect 17 0 5 0;
#X connect 17 0 19 0;
#X connect 17 1 11 0;
#X restore 2 -150 pd osc;
#N canvas 621 329 783 543 udp 0;
#X floatatom 424 314 3 0 0 0 - - -;
#X floatatom 449 314 3 0 0 0 - - -;
#X floatatom 478 314 3 0 0 0 - - -;
#X floatatom 505 314 3 0 0 0 - - -;
#X floatatom 532 315 5 0 0 0 - - -;
#X obj 424 288 unpack 0 0 0 0 0;
#X msg 203 100 status;
#X floatatom 303 235 9 0 0 0 - - -;
#X obj 484 261 tgl 15 0 empty empty empty 17 7 0 10 -4034 -1 -1 0 1
;
#X floatatom 363 261 9 0 0 0 - - -;
#X text 0 100 get status on right outlet:;
#X text 196 235 bytes received:;
#X text 211 259 total bytes received:;
#X text 381 313 from:;
#X text 303 88 Specify a multicast address (from 224.0.0.0 to 239.255.255.255)
to use multicasting;
#X obj 201 304 spigot;
#X obj 238 280 tgl 15 0 empty empty enable_print: -77 8 0 10 -4034
-1 -1 0 1;
#X obj 303 202 route received total from multicast;
#X text 286 137 change port to listen on;
#X text 496 370 Martin Peach 2010/10/15;
#X obj 199 170 udpreceive 7400;
#X msg 214 138 port 7400;
#X obj 200 329 print test;
#X obj 97 385 unpack f f f f f f f f f f f f f;
#X obj 337 471 outlet;
#X floatatom 266 463 5 0 0 0 - - -;
#X obj -47 486 print udp__;
#X obj 88 489 outlet;
#X obj 316 433 i;
#X obj 110 454 i;
#X connect 5 0 0 0;
#X connect 5 1 1 0;
#X connect 5 2 2 0;
#X connect 5 3 3 0;
#X connect 5 4 4 0;
#X connect 6 0 20 0;
#X connect 15 0 22 0;
#X connect 16 0 15 1;
#X connect 17 0 7 0;
#X connect 17 1 9 0;
#X connect 17 2 5 0;
#X connect 17 3 8 0;
#X connect 20 0 15 0;
#X connect 20 0 23 0;
#X connect 20 1 17 0;
#X connect 21 0 20 0;
#X connect 23 0 26 0;
#X connect 23 0 29 0;
#X connect 23 11 25 0;
#X connect 23 11 28 0;
#X connect 28 0 24 0;
#X connect 29 0 27 0;
#X restore 236 -164 pd udp;
#X obj 105 -90 sel 1;
#X obj 93 82 limit 4 64;
#X obj -14 -33 <= 3;
#X msg -16 20 0;
#X obj -15 -7 sel 1;
#X obj 510 -88 gemhead;
#X obj 510 -62 colorRGB 0 0 0 0;
#X floatatom 665 -1 5 0 0 0 - - -;
#X obj 373 -87 gemhead;
#X obj 373 -2 translateXYZ 0 0 0;
#X obj 373 -61 colorRGB 1 1 1 0;
#X obj 510 -3 translateXYZ 0 0 0.1;
#X obj 445 -36 r x;
#X obj 485 -36 r y;
#X obj 373 -110 tgl 15 0 empty empty empty 17 7 0 10 -262144 -1 -1
0 1;
#X floatatom 615 -95 5 0 0 0 - - -;
#X obj 373 23 circle 3;
#X obj 591 26 circle 2.92;
#X msg 107 -57 0;
#X msg 147 -58 1;
#X obj 148 -28 s onoff;
#X obj 94 -27 s kruh;
#X obj 373 -133 r kruh;
#X obj 668 -91 hsl 128 15 64 255 0 0 empty empty empty -2 -8 0 10 -262144
-1 -1 11902 1;
#X obj 106 -114 <= 64;
#X msg 665 -114 load 64 255;
#X obj 665 -69 autoscale 2.6 2.92;
#X obj 665 -139 r bang;
#X obj -13 -65 r udp;
#X obj 615 -121 r udp;
#X obj 93 -149 r udp;
#X obj 155 -89 sel 1;
#X obj 156 -113 >= 65;
#X msg 184 -57 0;
#X msg 71 -57 1;
#X obj -6 42 s kruh;
#N canvas 291 889 975 647 switch 0;
#X obj 35 13 inlet;
#X obj 35 140 spigot;
#X obj 114 168 tgl 15 0 empty empty UDP 17 7 0 10 -4032 -1 -1 0 1;
#X obj 114 198 tgl 15 0 empty empty KRUH 17 7 0 10 -4032 -1 -1 0 1
;
#X obj 114 228 tgl 15 0 empty empty POLY 17 7 0 10 -4032 -1 -1 0 1
;
#X obj 114 144 tgl 15 0 empty empty ALL_OFF_!!! 17 7 0 10 -258113 -1
-1 0 1;
#X obj 35 226 s udp;
#X obj 237 196 s kruh;
#X obj 236 230 s onoff;
#X floatatom 114 296 5 0 0 1 UDP - -;
#X obj 114 120 tgl 15 0 empty empty EMERGENCY_!!! 17 7 0 10 -258113
-1 -1 0 1;
#X msg 461 150 1;
#X obj 470 53 r bang;
#X floatatom 113 272 5 0 0 0 - - -;
#X obj 428 252 counter 0 255;
#X floatatom 159 275 5 0 0 2 speed - -;
#X obj 428 188 metro 555;
#X msg 402 149 555;
#X obj 223 136 * -1;
#X obj 223 159 + 1;
#X obj 526 212 bng 15 250 50 0 empty empty empty 17 7 0 10 -262144
-1 -1;
#X connect 0 0 1 0;
#X connect 1 0 6 0;
#X connect 1 0 9 0;
#X connect 2 0 1 1;
#X connect 3 0 7 0;
#X connect 4 0 8 0;
#X connect 5 0 2 0;
#X connect 5 0 3 0;
#X connect 5 0 4 0;
#X connect 10 0 16 0;
#X connect 10 0 18 0;
#X connect 11 0 14 1;
#X connect 12 0 11 0;
#X connect 12 0 17 0;
#X connect 13 0 6 0;
#X connect 14 0 13 0;
#X connect 15 0 16 1;
#X connect 16 0 14 0;
#X connect 17 0 15 0;
#X connect 18 0 19 0;
#X connect 19 0 2 0;
#X connect 20 0 14 4;
#X coords 0 -1 1 1 111 222 2 100 100;
#X restore 236 -130 pd switch;
#X floatatom 93 48 5 0 0 0 - - -;
#X obj 93 1 spigot;
#X obj -201 -180 hradio 15 1 0 3 empty empty empty 0 -8 0 10 -258113
-1 -1 2;
#N canvas 34 813 1585 840 mystify 0;
#X obj 54 316 line;
#X obj 181 312 line;
#X obj 195 175 random 900;
#X obj 110 164 random 700;
#X obj 52 341 / 100;
#X obj 182 340 / 100;
#X msg 57 289 \$1 \$2;
#X msg 177 290 \$1 \$2;
#X obj 57 264 pack f f;
#X obj 78 233 t b f;
#X floatatom 42 85 5 0 0 0 - - -;
#X obj 177 264 pack f f;
#X obj 198 233 t b f;
#X obj 193 202 - 450;
#X obj 108 188 - 350;
#X msg 41 234 450;
#X msg 4 233 -450;
#X obj 4 184 random 2;
#X obj 4 209 sel 0;
#X obj 277 172 random 2;
#X obj 277 197 sel 0;
#X msg 283 227 -350;
#X msg 323 228 350;
#X obj 109 81 random 2;
#X obj 109 107 sel 0;
#X floatatom 260 350 5 0 0 0 - - -;
#X floatatom 101 341 5 0 0 0 - - -;
#X obj 109 52 metro 2222;
#X obj 108 28 tgl 15 0 empty empty empty 17 7 0 10 -262144 -1 -1 1
1;
#X obj 196 150 t b;
#X obj 109 137 t b;
#X obj 51 369 s x1;
#X obj 180 367 s y1;
#X obj 53 417 gemhead;
#X obj 101 470 r y1;
#X obj 65 469 r x1;
#X obj 87 493 t b f;
#X obj 422 316 line;
#X obj 549 312 line;
#X obj 563 175 random 900;
#X obj 478 164 random 700;
#X obj 420 341 / 100;
#X obj 550 340 / 100;
#X msg 425 289 \$1 \$2;
#X msg 545 290 \$1 \$2;
#X obj 425 264 pack f f;
#X obj 446 233 t b f;
#X floatatom 410 85 5 0 0 0 - - -;
#X obj 545 264 pack f f;
#X obj 566 233 t b f;
#X obj 561 202 - 450;
#X obj 476 188 - 350;
#X msg 409 234 450;
#X msg 372 233 -450;
#X obj 372 184 random 2;
#X obj 372 209 sel 0;
#X obj 645 172 random 2;
#X obj 645 197 sel 0;
#X msg 651 227 -350;
#X msg 691 228 350;
#X obj 477 81 random 2;
#X obj 477 107 sel 0;
#X floatatom 628 350 5 0 0 0 - - -;
#X floatatom 469 341 5 0 0 0 - - -;
#X obj 477 52 metro 2222;
#X obj 476 28 tgl 15 0 empty empty empty 17 7 0 10 -262144 -1 -1 1
1;
#X obj 564 150 t b;
#X obj 477 137 t b;
#X obj 419 369 s x2;
#X obj 548 367 s y2;
#X obj 779 310 line;
#X obj 906 306 line;
#X obj 920 169 random 900;
#X obj 835 158 random 700;
#X obj 777 335 / 100;
#X obj 907 334 / 100;
#X msg 782 283 \$1 \$2;
#X msg 902 284 \$1 \$2;
#X obj 782 258 pack f f;
#X obj 803 227 t b f;
#X floatatom 767 79 5 0 0 0 - - -;
#X obj 902 258 pack f f;
#X obj 923 227 t b f;
#X obj 918 196 - 450;
#X obj 833 182 - 350;
#X msg 766 228 450;
#X msg 729 227 -450;
#X obj 729 178 random 2;
#X obj 729 203 sel 0;
#X obj 1002 166 random 2;
#X obj 1002 191 sel 0;
#X msg 1008 221 -350;
#X msg 1048 222 350;
#X obj 834 75 random 2;
#X obj 834 101 sel 0;
#X floatatom 985 344 5 0 0 0 - - -;
#X floatatom 826 335 5 0 0 0 - - -;
#X obj 834 46 metro 2222;
#X obj 833 22 tgl 15 0 empty empty empty 17 7 0 10 -262144 -1 -1 1
1;
#X obj 921 144 t b;
#X obj 834 131 t b;
#X obj 776 363 s x3;
#X obj 905 361 s y3;
#X obj 1152 316 line;
#X obj 1279 312 line;
#X obj 1293 175 random 900;
#X obj 1208 164 random 700;
#X obj 1150 341 / 100;
#X obj 1280 340 / 100;
#X msg 1155 289 \$1 \$2;
#X msg 1275 290 \$1 \$2;
#X obj 1155 264 pack f f;
#X obj 1176 233 t b f;
#X floatatom 1140 85 5 0 0 0 - - -;
#X obj 1275 264 pack f f;
#X obj 1296 233 t b f;
#X obj 1291 202 - 450;
#X obj 1206 188 - 350;
#X msg 1139 234 450;
#X msg 1102 233 -450;
#X obj 1102 184 random 2;
#X obj 1102 209 sel 0;
#X obj 1375 172 random 2;
#X obj 1375 197 sel 0;
#X msg 1381 227 -350;
#X msg 1421 228 350;
#X obj 1207 81 random 2;
#X obj 1207 107 sel 0;
#X floatatom 1358 350 5 0 0 0 - - -;
#X floatatom 1199 341 5 0 0 0 - - -;
#X obj 1207 52 metro 2222;
#X obj 1206 28 tgl 15 0 empty empty empty 17 7 0 10 -262144 -1 -1 1
1;
#X obj 1294 150 t b;
#X obj 1207 137 t b;
#X obj 1509 310 line;
#X obj 1636 306 line;
#X obj 1650 169 random 900;
#X obj 1565 158 random 700;
#X obj 1507 335 / 100;
#X obj 1637 334 / 100;
#X msg 1512 283 \$1 \$2;
#X msg 1632 284 \$1 \$2;
#X obj 1512 258 pack f f;
#X obj 1533 227 t b f;
#X floatatom 1497 79 5 0 0 0 - - -;
#X obj 1632 258 pack f f;
#X obj 1653 227 t b f;
#X obj 1648 196 - 450;
#X obj 1563 182 - 350;
#X msg 1496 228 450;
#X msg 1459 227 -450;
#X obj 1459 178 random 2;
#X obj 1459 203 sel 0;
#X obj 1732 166 random 2;
#X obj 1732 191 sel 0;
#X msg 1738 221 -350;
#X msg 1778 222 350;
#X obj 1564 75 random 2;
#X obj 1564 101 sel 0;
#X floatatom 1715 344 5 0 0 0 - - -;
#X floatatom 1556 335 5 0 0 0 - - -;
#X obj 1564 46 metro 2222;
#X obj 1563 22 tgl 15 0 empty empty empty 17 7 0 10 -262144 -1 -1 1
1;
#X obj 1651 144 t b;
#X obj 1564 131 t b;
#X obj 1150 369 s x4;
#X obj 1279 367 s y4;
#X obj 1636 362 s y5;
#X obj 1508 363 s x5;
#X obj 65 518 pack f f f;
#X obj 131 492 t b f;
#X obj 145 469 r z;
#X obj 197 493 t b f;
#X obj 175 518 pack f f f;
#X obj 241 492 t b f;
#X obj 255 469 r z;
#X obj 307 493 t b f;
#X obj 285 518 pack f f f;
#X obj 351 492 t b f;
#X obj 365 469 r z;
#X obj 417 493 t b f;
#X obj 395 518 pack f f f;
#X obj 461 492 t b f;
#X obj 475 469 r z;
#X obj 527 493 t b f;
#X obj 505 518 pack f f f;
#X obj 571 492 t b f;
#X obj 585 469 r z;
#X obj 175 469 r x2;
#X obj 211 470 r y2;
#X obj 285 469 r x3;
#X obj 321 470 r y3;
#X obj 395 469 r x4;
#X obj 431 470 r y4;
#X obj 505 469 r x5;
#X obj 541 470 r y5;
#X obj 53 565 polygon 5;
#X obj 53 442 r meta;
#X obj 49 598 gemhead;
#X obj 97 651 r y1;
#X obj 61 650 r x1;
#X obj 83 714 t b f;
#X obj 61 739 pack f f f;
#X obj 127 713 t b f;
#X obj 141 650 r z;
#X obj 193 714 t b f;
#X obj 171 739 pack f f f;
#X obj 237 713 t b f;
#X obj 251 650 r z;
#X obj 303 714 t b f;
#X obj 281 739 pack f f f;
#X obj 347 713 t b f;
#X obj 361 650 r z;
#X obj 413 714 t b f;
#X obj 391 739 pack f f f;
#X obj 457 713 t b f;
#X obj 471 650 r z;
#X obj 523 714 t b f;
#X obj 501 739 pack f f f;
#X obj 567 713 t b f;
#X obj 581 650 r z;
#X obj 171 650 r x2;
#X obj 207 651 r y2;
#X obj 281 650 r x3;
#X obj 317 651 r y3;
#X obj 391 650 r x4;
#X obj 427 651 r y4;
#X obj 501 650 r x5;
#X obj 537 651 r y5;
#X obj 49 786 polygon 5;
#X obj 49 623 r meta;
#X obj 61 678 +;
#X obj 97 678 +;
#X obj 171 678 +;
#X obj 207 678 +;
#X obj 281 678 +;
#X obj 317 678 +;
#X obj 390 678 +;
#X obj 427 678 +;
#X obj 501 678 +;
#X obj 537 678 +;
#X floatatom 615 626 5 0 0 0 - - -;
#X obj 614 658 f;
#X obj 678 412 gemhead;
#X obj 712 528 t b f;
#X obj 690 553 pack f f f;
#X obj 756 527 t b f;
#X obj 770 464 r z;
#X obj 822 528 t b f;
#X obj 800 553 pack f f f;
#X obj 866 527 t b f;
#X obj 880 464 r z;
#X obj 932 528 t b f;
#X obj 910 553 pack f f f;
#X obj 976 527 t b f;
#X obj 990 464 r z;
#X obj 1042 528 t b f;
#X obj 1020 553 pack f f f;
#X obj 1086 527 t b f;
#X obj 1100 464 r z;
#X obj 1152 528 t b f;
#X obj 1130 553 pack f f f;
#X obj 1196 527 t b f;
#X obj 1210 464 r z;
#X obj 800 464 r x2;
#X obj 836 465 r y2;
#X obj 910 464 r x3;
#X obj 946 465 r y3;
#X obj 1020 464 r x4;
#X obj 1056 465 r y4;
#X obj 1130 464 r x5;
#X obj 1166 465 r y5;
#X obj 678 600 polygon 5;
#X obj 678 437 r meta;
#X obj 690 492 +;
#X obj 726 492 +;
#X obj 800 492 +;
#X obj 836 492 +;
#X obj 910 492 +;
#X obj 946 492 +;
#X obj 1019 492 +;
#X obj 1056 492 +;
#X obj 1130 492 +;
#X obj 1166 492 +;
#X obj 1243 472 f;
#X obj 691 465 r x1;
#X obj 726 465 r y1;
#X obj 678 632 gemhead;
#X obj 712 748 t b f;
#X obj 690 773 pack f f f;
#X obj 756 747 t b f;
#X obj 770 684 r z;
#X obj 822 748 t b f;
#X obj 800 773 pack f f f;
#X obj 866 747 t b f;
#X obj 880 684 r z;
#X obj 932 748 t b f;
#X obj 910 773 pack f f f;
#X obj 976 747 t b f;
#X obj 990 684 r z;
#X obj 1042 748 t b f;
#X obj 1020 773 pack f f f;
#X obj 1086 747 t b f;
#X obj 1100 684 r z;
#X obj 1152 748 t b f;
#X obj 1130 773 pack f f f;
#X obj 1196 747 t b f;
#X obj 1210 684 r z;
#X obj 800 684 r x2;
#X obj 836 685 r y2;
#X obj 910 684 r x3;
#X obj 946 685 r y3;
#X obj 1020 684 r x4;
#X obj 1056 685 r y4;
#X obj 1130 684 r x5;
#X obj 1166 685 r y5;
#X obj 678 820 polygon 5;
#X obj 678 657 r meta;
#X obj 690 712 +;
#X obj 726 712 +;
#X obj 800 712 +;
#X obj 836 712 +;
#X obj 910 712 +;
#X obj 946 712 +;
#X obj 1019 712 +;
#X obj 1056 712 +;
#X obj 1130 712 +;
#X obj 1166 712 +;
#X obj 1243 692 f;
#X obj 691 685 r x1;
#X obj 726 685 r y1;
#X obj 678 862 gemhead;
#X obj 712 978 t b f;
#X obj 690 1003 pack f f f;
#X obj 756 977 t b f;
#X obj 770 914 r z;
#X obj 822 978 t b f;
#X obj 800 1003 pack f f f;
#X obj 866 977 t b f;
#X obj 880 914 r z;
#X obj 932 978 t b f;
#X obj 910 1003 pack f f f;
#X obj 976 977 t b f;
#X obj 990 914 r z;
#X obj 1042 978 t b f;
#X obj 1020 1003 pack f f f;
#X obj 1086 977 t b f;
#X obj 1100 914 r z;
#X obj 1152 978 t b f;
#X obj 1130 1003 pack f f f;
#X obj 1196 977 t b f;
#X obj 1210 914 r z;
#X obj 800 914 r x2;
#X obj 836 915 r y2;
#X obj 910 914 r x3;
#X obj 946 915 r y3;
#X obj 1020 914 r x4;
#X obj 1056 915 r y4;
#X obj 1130 914 r x5;
#X obj 1166 915 r y5;
#X obj 678 1050 polygon 5;
#X obj 678 887 r meta;
#X obj 690 942 +;
#X obj 726 942 +;
#X obj 800 942 +;
#X obj 836 942 +;
#X obj 910 942 +;
#X obj 946 942 +;
#X obj 1019 942 +;
#X obj 1056 942 +;
#X obj 1130 942 +;
#X obj 1166 942 +;
#X obj 1243 922 f;
#X obj 691 915 r x1;
#X obj 726 915 r y1;
#X obj 258 93 s z;
#X floatatom 255 50 5 0 0 0 - - -;
#X msg 255 21 0;
#X msg 275 890 draw line;
#X floatatom 261 825 5 0 10 0 - - -;
#X obj 273 925 s meta;
#X obj 13 11 inlet;
#X obj 360 835 r bang;
#X msg 263 865 width 2;
#X obj 136 8 inlet;
#X obj 544 587 + 0.03;
#X msg 543 561 0;
#X obj 1242 446 + 0.03;
#X obj 1244 664 + 0.03;
#X obj 1243 886 + 0.03;
#X obj 482 562 r bang;
#X obj 193 10 inlet;
#X connect 0 0 4 0;
#X connect 0 0 26 0;
#X connect 1 0 5 0;
#X connect 1 0 25 0;
#X connect 2 0 13 0;
#X connect 3 0 14 0;
#X connect 4 0 31 0;
#X connect 5 0 32 0;
#X connect 6 0 0 0;
#X connect 7 0 1 0;
#X connect 8 0 6 0;
#X connect 9 0 8 0;
#X connect 9 1 8 1;
#X connect 10 0 9 0;
#X connect 10 0 12 0;
#X connect 10 0 27 1;
#X connect 10 0 47 0;
#X connect 11 0 7 0;
#X connect 12 0 11 0;
#X connect 12 1 11 1;
#X connect 13 0 8 0;
#X connect 14 0 11 0;
#X connect 15 0 8 0;
#X connect 16 0 8 0;
#X connect 17 0 18 0;
#X connect 18 0 16 0;
#X connect 18 1 15 0;
#X connect 19 0 20 0;
#X connect 20 0 21 0;
#X connect 20 1 22 0;
#X connect 21 0 11 0;
#X connect 22 0 11 0;
#X connect 23 0 24 0;
#X connect 24 0 30 0;
#X connect 24 1 29 0;
#X connect 27 0 23 0;
#X connect 28 0 27 0;
#X connect 28 0 65 0;
#X connect 29 0 2 0;
#X connect 29 0 19 0;
#X connect 30 0 3 0;
#X connect 30 0 17 0;
#X connect 33 0 196 0;
#X connect 34 0 36 0;
#X connect 35 0 169 0;
#X connect 36 0 169 0;
#X connect 36 1 169 1;
#X connect 37 0 41 0;
#X connect 37 0 63 0;
#X connect 38 0 42 0;
#X connect 38 0 62 0;
#X connect 39 0 50 0;
#X connect 40 0 51 0;
#X connect 41 0 68 0;
#X connect 42 0 69 0;
#X connect 43 0 37 0;
#X connect 44 0 38 0;
#X connect 45 0 43 0;
#X connect 46 0 45 0;
#X connect 46 1 45 1;
#X connect 47 0 46 0;
#X connect 47 0 49 0;
#X connect 47 0 64 1;
#X connect 47 0 80 0;
#X connect 48 0 44 0;
#X connect 49 0 48 0;
#X connect 49 1 48 1;
#X connect 50 0 45 0;
#X connect 51 0 48 0;
#X connect 52 0 45 0;
#X connect 53 0 45 0;
#X connect 54 0 55 0;
#X connect 55 0 53 0;
#X connect 55 1 52 0;
#X connect 56 0 57 0;
#X connect 57 0 58 0;
#X connect 57 1 59 0;
#X connect 58 0 48 0;
#X connect 59 0 48 0;
#X connect 60 0 61 0;
#X connect 61 0 67 0;
#X connect 61 1 66 0;
#X connect 64 0 60 0;
#X connect 65 0 64 0;
#X connect 65 0 98 0;
#X connect 66 0 39 0;
#X connect 66 0 56 0;
#X connect 67 0 40 0;
#X connect 67 0 54 0;
#X connect 70 0 74 0;
#X connect 70 0 96 0;
#X connect 71 0 75 0;
#X connect 71 0 95 0;
#X connect 72 0 83 0;
#X connect 73 0 84 0;
#X connect 74 0 101 0;
#X connect 75 0 102 0;
#X connect 76 0 70 0;
#X connect 77 0 71 0;
#X connect 78 0 76 0;
#X connect 79 0 78 0;
#X connect 79 1 78 1;
#X connect 80 0 79 0;
#X connect 80 0 82 0;
#X connect 80 0 97 1;
#X connect 80 0 113 0;
#X connect 81 0 77 0;
#X connect 82 0 81 0;
#X connect 82 1 81 1;
#X connect 83 0 78 0;
#X connect 84 0 81 0;
#X connect 85 0 78 0;
#X connect 86 0 78 0;
#X connect 87 0 88 0;
#X connect 88 0 86 0;
#X connect 88 1 85 0;
#X connect 89 0 90 0;
#X connect 90 0 91 0;
#X connect 90 1 92 0;
#X connect 91 0 81 0;
#X connect 92 0 81 0;
#X connect 93 0 94 0;
#X connect 94 0 100 0;
#X connect 94 1 99 0;
#X connect 97 0 93 0;
#X connect 98 0 97 0;
#X connect 98 0 131 0;
#X connect 99 0 72 0;
#X connect 99 0 89 0;
#X connect 100 0 73 0;
#X connect 100 0 87 0;
#X connect 103 0 107 0;
#X connect 103 0 129 0;
#X connect 104 0 108 0;
#X connect 104 0 128 0;
#X connect 105 0 116 0;
#X connect 106 0 117 0;
#X connect 107 0 165 0;
#X connect 108 0 166 0;
#X connect 109 0 103 0;
#X connect 110 0 104 0;
#X connect 111 0 109 0;
#X connect 112 0 111 0;
#X connect 112 1 111 1;
#X connect 113 0 112 0;
#X connect 113 0 115 0;
#X connect 113 0 130 1;
#X connect 113 0 144 0;
#X connect 114 0 110 0;
#X connect 115 0 114 0;
#X connect 115 1 114 1;
#X connect 116 0 111 0;
#X connect 117 0 114 0;
#X connect 118 0 111 0;
#X connect 119 0 111 0;
#X connect 120 0 121 0;
#X connect 121 0 119 0;
#X connect 121 1 118 0;
#X connect 122 0 123 0;
#X connect 123 0 124 0;
#X connect 123 1 125 0;
#X connect 124 0 114 0;
#X connect 125 0 114 0;
#X connect 126 0 127 0;
#X connect 127 0 133 0;
#X connect 127 1 132 0;
#X connect 130 0 126 0;
#X connect 131 0 130 0;
#X connect 131 0 162 0;
#X connect 132 0 105 0;
#X connect 132 0 122 0;
#X connect 133 0 106 0;
#X connect 133 0 120 0;
#X connect 134 0 138 0;
#X connect 134 0 160 0;
#X connect 135 0 139 0;
#X connect 135 0 159 0;
#X connect 136 0 147 0;
#X connect 137 0 148 0;
#X connect 138 0 168 0;
#X connect 139 0 167 0;
#X connect 140 0 134 0;
#X connect 141 0 135 0;
#X connect 142 0 140 0;
#X connect 143 0 142 0;
#X connect 143 1 142 1;
#X connect 144 0 143 0;
#X connect 144 0 146 0;
#X connect 144 0 161 1;
#X connect 145 0 141 0;
#X connect 146 0 145 0;
#X connect 146 1 145 1;
#X connect 147 0 142 0;
#X connect 148 0 145 0;
#X connect 149 0 142 0;
#X connect 150 0 142 0;
#X connect 151 0 152 0;
#X connect 152 0 150 0;
#X connect 152 1 149 0;
#X connect 153 0 154 0;
#X connect 154 0 155 0;
#X connect 154 1 156 0;
#X connect 155 0 145 0;
#X connect 156 0 145 0;
#X connect 157 0 158 0;
#X connect 158 0 164 0;
#X connect 158 1 163 0;
#X connect 161 0 157 0;
#X connect 162 0 161 0;
#X connect 163 0 136 0;
#X connect 163 0 153 0;
#X connect 164 0 137 0;
#X connect 164 0 151 0;
#X connect 169 0 196 1;
#X connect 170 0 169 0;
#X connect 170 1 169 2;
#X connect 171 0 170 0;
#X connect 172 0 173 0;
#X connect 172 1 173 1;
#X connect 173 0 196 2;
#X connect 174 0 173 0;
#X connect 174 1 173 2;
#X connect 175 0 174 0;
#X connect 176 0 177 0;
#X connect 176 1 177 1;
#X connect 177 0 196 3;
#X connect 178 0 177 0;
#X connect 178 1 177 2;
#X connect 179 0 178 0;
#X connect 180 0 181 0;
#X connect 180 1 181 1;
#X connect 181 0 196 4;
#X connect 182 0 181 0;
#X connect 182 1 181 2;
#X connect 183 0 182 0;
#X connect 184 0 185 0;
#X connect 184 1 185 1;
#X connect 185 0 196 5;
#X connect 186 0 185 0;
#X connect 186 1 185 2;
#X connect 187 0 186 0;
#X connect 188 0 173 0;
#X connect 189 0 172 0;
#X connect 190 0 177 0;
#X connect 191 0 176 0;
#X connect 192 0 181 0;
#X connect 193 0 180 0;
#X connect 194 0 185 0;
#X connect 195 0 184 0;
#X connect 197 0 196 0;
#X connect 198 0 229 0;
#X connect 199 0 232 0;
#X connect 200 0 231 0;
#X connect 201 0 202 0;
#X connect 201 1 202 1;
#X connect 202 0 229 1;
#X connect 203 0 202 0;
#X connect 203 1 202 2;
#X connect 204 0 203 0;
#X connect 205 0 206 0;
#X connect 205 1 206 1;
#X connect 206 0 229 2;
#X connect 207 0 206 0;
#X connect 207 1 206 2;
#X connect 208 0 207 0;
#X connect 209 0 210 0;
#X connect 209 1 210 1;
#X connect 210 0 229 3;
#X connect 211 0 210 0;
#X connect 211 1 210 2;
#X connect 212 0 211 0;
#X connect 213 0 214 0;
#X connect 213 1 214 1;
#X connect 214 0 229 4;
#X connect 215 0 214 0;
#X connect 215 1 214 2;
#X connect 216 0 215 0;
#X connect 217 0 218 0;
#X connect 217 1 218 1;
#X connect 218 0 229 5;
#X connect 219 0 218 0;
#X connect 219 1 218 2;
#X connect 220 0 219 0;
#X connect 221 0 233 0;
#X connect 222 0 234 0;
#X connect 223 0 235 0;
#X connect 224 0 236 0;
#X connect 225 0 237 0;
#X connect 226 0 238 0;
#X connect 227 0 239 0;
#X connect 228 0 240 0;
#X connect 230 0 229 0;
#X connect 231 0 202 0;
#X connect 232 0 201 0;
#X connect 233 0 206 0;
#X connect 234 0 205 0;
#X connect 235 0 210 0;
#X connect 236 0 209 0;
#X connect 237 0 214 0;
#X connect 238 0 213 0;
#X connect 239 0 218 0;
#X connect 240 0 217 0;
#X connect 241 0 242 0;
#X connect 242 0 231 1;
#X connect 242 0 232 1;
#X connect 242 0 233 1;
#X connect 242 0 234 1;
#X connect 242 0 235 1;
#X connect 242 0 236 1;
#X connect 242 0 237 1;
#X connect 242 0 238 1;
#X connect 242 0 239 1;
#X connect 242 0 240 1;
#X connect 243 0 272 0;
#X connect 244 0 245 0;
#X connect 244 1 245 1;
#X connect 245 0 272 1;
#X connect 246 0 245 0;
#X connect 246 1 245 2;
#X connect 247 0 246 0;
#X connect 248 0 249 0;
#X connect 248 1 249 1;
#X connect 249 0 272 2;
#X connect 250 0 249 0;
#X connect 250 1 249 2;
#X connect 251 0 250 0;
#X connect 252 0 253 0;
#X connect 252 1 253 1;
#X connect 253 0 272 3;
#X connect 254 0 253 0;
#X connect 254 1 253 2;
#X connect 255 0 254 0;
#X connect 256 0 257 0;
#X connect 256 1 257 1;
#X connect 257 0 272 4;
#X connect 258 0 257 0;
#X connect 258 1 257 2;
#X connect 259 0 258 0;
#X connect 260 0 261 0;
#X connect 260 1 261 1;
#X connect 261 0 272 5;
#X connect 262 0 261 0;
#X connect 262 1 261 2;
#X connect 263 0 262 0;
#X connect 264 0 276 0;
#X connect 265 0 277 0;
#X connect 266 0 278 0;
#X connect 267 0 279 0;
#X connect 268 0 280 0;
#X connect 269 0 281 0;
#X connect 270 0 282 0;
#X connect 271 0 283 0;
#X connect 273 0 272 0;
#X connect 274 0 245 0;
#X connect 275 0 244 0;
#X connect 276 0 249 0;
#X connect 277 0 248 0;
#X connect 278 0 253 0;
#X connect 279 0 252 0;
#X connect 280 0 257 0;
#X connect 281 0 256 0;
#X connect 282 0 261 0;
#X connect 283 0 260 0;
#X connect 284 0 274 1;
#X connect 284 0 275 1;
#X connect 284 0 276 1;
#X connect 284 0 277 1;
#X connect 284 0 278 1;
#X connect 284 0 279 1;
#X connect 284 0 280 1;
#X connect 284 0 281 1;
#X connect 284 0 282 1;
#X connect 284 0 283 1;
#X connect 285 0 274 0;
#X connect 286 0 275 0;
#X connect 287 0 316 0;
#X connect 288 0 289 0;
#X connect 288 1 289 1;
#X connect 289 0 316 1;
#X connect 290 0 289 0;
#X connect 290 1 289 2;
#X connect 291 0 290 0;
#X connect 292 0 293 0;
#X connect 292 1 293 1;
#X connect 293 0 316 2;
#X connect 294 0 293 0;
#X connect 294 1 293 2;
#X connect 295 0 294 0;
#X connect 296 0 297 0;
#X connect 296 1 297 1;
#X connect 297 0 316 3;
#X connect 298 0 297 0;
#X connect 298 1 297 2;
#X connect 299 0 298 0;
#X connect 300 0 301 0;
#X connect 300 1 301 1;
#X connect 301 0 316 4;
#X connect 302 0 301 0;
#X connect 302 1 301 2;
#X connect 303 0 302 0;
#X connect 304 0 305 0;
#X connect 304 1 305 1;
#X connect 305 0 316 5;
#X connect 306 0 305 0;
#X connect 306 1 305 2;
#X connect 307 0 306 0;
#X connect 308 0 320 0;
#X connect 309 0 321 0;
#X connect 310 0 322 0;
#X connect 311 0 323 0;
#X connect 312 0 324 0;
#X connect 313 0 325 0;
#X connect 314 0 326 0;
#X connect 315 0 327 0;
#X connect 317 0 316 0;
#X connect 318 0 289 0;
#X connect 319 0 288 0;
#X connect 320 0 293 0;
#X connect 321 0 292 0;
#X connect 322 0 297 0;
#X connect 323 0 296 0;
#X connect 324 0 301 0;
#X connect 325 0 300 0;
#X connect 326 0 305 0;
#X connect 327 0 304 0;
#X connect 328 0 318 1;
#X connect 328 0 319 1;
#X connect 328 0 320 1;
#X connect 328 0 321 1;
#X connect 328 0 322 1;
#X connect 328 0 323 1;
#X connect 328 0 324 1;
#X connect 328 0 325 1;
#X connect 328 0 326 1;
#X connect 328 0 327 1;
#X connect 329 0 318 0;
#X connect 330 0 319 0;
#X connect 331 0 360 0;
#X connect 332 0 333 0;
#X connect 332 1 333 1;
#X connect 333 0 360 1;
#X connect 334 0 333 0;
#X connect 334 1 333 2;
#X connect 335 0 334 0;
#X connect 336 0 337 0;
#X connect 336 1 337 1;
#X connect 337 0 360 2;
#X connect 338 0 337 0;
#X connect 338 1 337 2;
#X connect 339 0 338 0;
#X connect 340 0 341 0;
#X connect 340 1 341 1;
#X connect 341 0 360 3;
#X connect 342 0 341 0;
#X connect 342 1 341 2;
#X connect 343 0 342 0;
#X connect 344 0 345 0;
#X connect 344 1 345 1;
#X connect 345 0 360 4;
#X connect 346 0 345 0;
#X connect 346 1 345 2;
#X connect 347 0 346 0;
#X connect 348 0 349 0;
#X connect 348 1 349 1;
#X connect 349 0 360 5;
#X connect 350 0 349 0;
#X connect 350 1 349 2;
#X connect 351 0 350 0;
#X connect 352 0 364 0;
#X connect 353 0 365 0;
#X connect 354 0 366 0;
#X connect 355 0 367 0;
#X connect 356 0 368 0;
#X connect 357 0 369 0;
#X connect 358 0 370 0;
#X connect 359 0 371 0;
#X connect 361 0 360 0;
#X connect 362 0 333 0;
#X connect 363 0 332 0;
#X connect 364 0 337 0;
#X connect 365 0 336 0;
#X connect 366 0 341 0;
#X connect 367 0 340 0;
#X connect 368 0 345 0;
#X connect 369 0 344 0;
#X connect 370 0 349 0;
#X connect 371 0 348 0;
#X connect 372 0 362 1;
#X connect 372 0 363 1;
#X connect 372 0 364 1;
#X connect 372 0 365 1;
#X connect 372 0 366 1;
#X connect 372 0 367 1;
#X connect 372 0 368 1;
#X connect 372 0 369 1;
#X connect 372 0 370 1;
#X connect 372 0 371 1;
#X connect 373 0 362 0;
#X connect 374 0 363 0;
#X connect 376 0 375 0;
#X connect 377 0 376 0;
#X connect 378 0 380 0;
#X connect 379 0 383 0;
#X connect 381 0 28 0;
#X connect 381 0 33 0;
#X connect 381 0 198 0;
#X connect 381 0 243 0;
#X connect 381 0 287 0;
#X connect 381 0 331 0;
#X connect 382 0 378 0;
#X connect 382 0 383 0;
#X connect 383 0 380 0;
#X connect 384 0 10 0;
#X connect 385 0 241 0;
#X connect 385 0 387 0;
#X connect 386 0 385 0;
#X connect 387 0 284 0;
#X connect 387 0 388 0;
#X connect 388 0 328 0;
#X connect 388 0 389 0;
#X connect 389 0 372 0;
#X connect 390 0 386 0;
#X connect 391 0 376 0;
#X restore 228 230 pd mystify;
#X obj 224 192 tgl 33 0 empty empty empty 17 7 0 10 -258113 -1 -1 1
1;
#X floatatom 264 203 5 0 0 0 - - -;
#X obj 262 152 r bang;
#X floatatom 310 204 5 0 0 0 - - -;
#X obj 360 205 line;
#X msg 479 125 -12 4444;
#X msg 368 152 0 11111;
#X msg 359 124 -12 4444;
#X msg 333 100 0.1 0;
#N canvas 1030 1262 450 300 stars 0;
#X obj 190 450 s pd-array;
#N canvas 34 951 1094 698 array 0;
#X obj 1 1 hvezda;
#X obj 2 2 hvezda;
#X obj 3 3 hvezda;
#X obj 4 4 hvezda;
#X obj 5 5 hvezda;
#X obj 6 6 hvezda;
#X obj 7 7 hvezda;
#X obj 8 8 hvezda;
#X obj 9 9 hvezda;
#X obj 10 10 hvezda;
#X obj 11 11 hvezda;
#X obj 12 12 hvezda;
#X obj 13 13 hvezda;
#X obj 14 14 hvezda;
#X obj 15 15 hvezda;
#X obj 16 16 hvezda;
#X obj 17 17 hvezda;
#X obj 18 18 hvezda;
#X obj 19 19 hvezda;
#X obj 20 20 hvezda;
#X obj 21 21 hvezda;
#X obj 22 22 hvezda;
#X obj 23 23 hvezda;
#X obj 24 24 hvezda;
#X obj 25 25 hvezda;
#X obj 26 26 hvezda;
#X obj 27 27 hvezda;
#X obj 28 28 hvezda;
#X obj 29 29 hvezda;
#X obj 30 30 hvezda;
#X obj 31 31 hvezda;
#X obj 32 32 hvezda;
#X obj 33 33 hvezda;
#X obj 34 34 hvezda;
#X obj 35 35 hvezda;
#X obj 36 36 hvezda;
#X obj 37 37 hvezda;
#X obj 38 38 hvezda;
#X obj 39 39 hvezda;
#X obj 40 40 hvezda;
#X obj 41 41 hvezda;
#X obj 42 42 hvezda;
#X obj 43 43 hvezda;
#X obj 44 44 hvezda;
#X obj 45 45 hvezda;
#X obj 46 46 hvezda;
#X obj 47 47 hvezda;
#X obj 48 48 hvezda;
#X obj 49 49 hvezda;
#X obj 50 50 hvezda;
#X obj 51 51 hvezda;
#X obj 52 52 hvezda;
#X obj 53 53 hvezda;
#X obj 54 54 hvezda;
#X obj 55 55 hvezda;
#X obj 56 56 hvezda;
#X obj 57 57 hvezda;
#X obj 58 58 hvezda;
#X obj 59 59 hvezda;
#X obj 60 60 hvezda;
#X obj 61 61 hvezda;
#X obj 62 62 hvezda;
#X obj 63 63 hvezda;
#X obj 64 64 hvezda;
#X obj 65 65 hvezda;
#X obj 66 66 hvezda;
#X obj 67 67 hvezda;
#X obj 68 68 hvezda;
#X obj 69 69 hvezda;
#X obj 70 70 hvezda;
#X obj 71 71 hvezda;
#X obj 72 72 hvezda;
#X obj 73 73 hvezda;
#X obj 74 74 hvezda;
#X obj 75 75 hvezda;
#X obj 76 76 hvezda;
#X obj 77 77 hvezda;
#X obj 78 78 hvezda;
#X obj 79 79 hvezda;
#X obj 80 80 hvezda;
#X obj 81 81 hvezda;
#X obj 82 82 hvezda;
#X obj 83 83 hvezda;
#X obj 84 84 hvezda;
#X obj 85 85 hvezda;
#X obj 86 86 hvezda;
#X obj 87 87 hvezda;
#X obj 88 88 hvezda;
#X obj 89 89 hvezda;
#X obj 90 90 hvezda;
#X obj 91 91 hvezda;
#X obj 92 92 hvezda;
#X obj 93 93 hvezda;
#X obj 94 94 hvezda;
#X obj 95 95 hvezda;
#X obj 96 96 hvezda;
#X obj 97 97 hvezda;
#X obj 98 98 hvezda;
#X obj 99 99 hvezda;
#X obj 100 100 hvezda;
#X obj 101 101 hvezda;
#X obj 102 102 hvezda;
#X obj 103 103 hvezda;
#X obj 104 104 hvezda;
#X obj 105 105 hvezda;
#X obj 106 106 hvezda;
#X obj 107 107 hvezda;
#X obj 108 108 hvezda;
#X obj 109 109 hvezda;
#X obj 110 110 hvezda;
#X obj 111 111 hvezda;
#X obj 112 112 hvezda;
#X obj 113 113 hvezda;
#X obj 114 114 hvezda;
#X obj 115 115 hvezda;
#X obj 116 116 hvezda;
#X obj 117 117 hvezda;
#X obj 118 118 hvezda;
#X obj 119 119 hvezda;
#X obj 120 120 hvezda;
#X obj 121 121 hvezda;
#X obj 122 122 hvezda;
#X obj 123 123 hvezda;
#X obj 124 124 hvezda;
#X obj 125 125 hvezda;
#X obj 126 126 hvezda;
#X obj 127 127 hvezda;
#X obj 128 128 hvezda;
#X obj 129 129 hvezda;
#X obj 130 130 hvezda;
#X obj 131 131 hvezda;
#X obj 132 132 hvezda;
#X obj 133 133 hvezda;
#X obj 134 134 hvezda;
#X obj 135 135 hvezda;
#X obj 136 136 hvezda;
#X obj 137 137 hvezda;
#X obj 138 138 hvezda;
#X obj 139 139 hvezda;
#X obj 140 140 hvezda;
#X obj 141 141 hvezda;
#X obj 142 142 hvezda;
#X obj 143 143 hvezda;
#X obj 144 144 hvezda;
#X obj 145 145 hvezda;
#X obj 146 146 hvezda;
#X obj 147 147 hvezda;
#X obj 148 148 hvezda;
#X obj 149 149 hvezda;
#X obj 150 150 hvezda;
#X obj 151 151 hvezda;
#X obj 152 152 hvezda;
#X obj 153 153 hvezda;
#X obj 154 154 hvezda;
#X obj 155 155 hvezda;
#X obj 156 156 hvezda;
#X obj 157 157 hvezda;
#X obj 158 158 hvezda;
#X obj 159 159 hvezda;
#X obj 160 160 hvezda;
#X obj 161 161 hvezda;
#X obj 162 162 hvezda;
#X obj 163 163 hvezda;
#X obj 164 164 hvezda;
#X obj 165 165 hvezda;
#X obj 166 166 hvezda;
#X obj 167 167 hvezda;
#X obj 168 168 hvezda;
#X obj 169 169 hvezda;
#X obj 170 170 hvezda;
#X obj 171 171 hvezda;
#X obj 172 172 hvezda;
#X obj 173 173 hvezda;
#X obj 174 174 hvezda;
#X obj 175 175 hvezda;
#X obj 176 176 hvezda;
#X obj 177 177 hvezda;
#X obj 178 178 hvezda;
#X obj 179 179 hvezda;
#X obj 180 180 hvezda;
#X obj 181 181 hvezda;
#X obj 182 182 hvezda;
#X obj 183 183 hvezda;
#X obj 184 184 hvezda;
#X obj 185 185 hvezda;
#X obj 186 186 hvezda;
#X obj 187 187 hvezda;
#X obj 188 188 hvezda;
#X obj 189 189 hvezda;
#X obj 190 190 hvezda;
#X obj 191 191 hvezda;
#X obj 192 192 hvezda;
#X obj 193 193 hvezda;
#X obj 194 194 hvezda;
#X obj 195 195 hvezda;
#X obj 196 196 hvezda;
#X obj 197 197 hvezda;
#X obj 198 198 hvezda;
#X obj 199 199 hvezda;
#X obj 200 200 hvezda;
#X obj 201 201 hvezda;
#X obj 202 202 hvezda;
#X obj 203 203 hvezda;
#X obj 204 204 hvezda;
#X obj 205 205 hvezda;
#X obj 206 206 hvezda;
#X obj 207 207 hvezda;
#X obj 208 208 hvezda;
#X obj 209 209 hvezda;
#X obj 210 210 hvezda;
#X obj 211 211 hvezda;
#X obj 212 212 hvezda;
#X obj 213 213 hvezda;
#X obj 214 214 hvezda;
#X obj 215 215 hvezda;
#X obj 216 216 hvezda;
#X obj 217 217 hvezda;
#X obj 218 218 hvezda;
#X obj 219 219 hvezda;
#X obj 220 220 hvezda;
#X obj 221 221 hvezda;
#X obj 222 222 hvezda;
#X obj 223 223 hvezda;
#X obj 224 224 hvezda;
#X obj 225 225 hvezda;
#X obj 226 226 hvezda;
#X obj 227 227 hvezda;
#X obj 228 228 hvezda;
#X obj 229 229 hvezda;
#X obj 230 230 hvezda;
#X obj 231 231 hvezda;
#X obj 232 232 hvezda;
#X obj 233 233 hvezda;
#X obj 234 234 hvezda;
#X obj 235 235 hvezda;
#X obj 236 236 hvezda;
#X obj 237 237 hvezda;
#X obj 238 238 hvezda;
#X obj 239 239 hvezda;
#X obj 240 240 hvezda;
#X obj 241 241 hvezda;
#X obj 242 242 hvezda;
#X obj 243 243 hvezda;
#X obj 244 244 hvezda;
#X obj 245 245 hvezda;
#X obj 246 246 hvezda;
#X obj 247 247 hvezda;
#X obj 248 248 hvezda;
#X obj 249 249 hvezda;
#X obj 250 250 hvezda;
#X obj 251 251 hvezda;
#X obj 252 252 hvezda;
#X obj 253 253 hvezda;
#X obj 254 254 hvezda;
#X obj 255 255 hvezda;
#X obj 256 256 hvezda;
#X obj 257 257 hvezda;
#X obj 258 258 hvezda;
#X obj 259 259 hvezda;
#X obj 260 260 hvezda;
#X obj 261 261 hvezda;
#X obj 262 262 hvezda;
#X obj 263 263 hvezda;
#X obj 264 264 hvezda;
#X obj 265 265 hvezda;
#X obj 266 266 hvezda;
#X obj 267 267 hvezda;
#X obj 268 268 hvezda;
#X obj 269 269 hvezda;
#X obj 270 270 hvezda;
#X obj 271 271 hvezda;
#X obj 272 272 hvezda;
#X obj 273 273 hvezda;
#X obj 274 274 hvezda;
#X obj 275 275 hvezda;
#X obj 276 276 hvezda;
#X obj 277 277 hvezda;
#X obj 278 278 hvezda;
#X obj 279 279 hvezda;
#X obj 280 280 hvezda;
#X obj 281 281 hvezda;
#X obj 282 282 hvezda;
#X obj 283 283 hvezda;
#X obj 284 284 hvezda;
#X obj 285 285 hvezda;
#X obj 286 286 hvezda;
#X obj 287 287 hvezda;
#X obj 288 288 hvezda;
#X obj 289 289 hvezda;
#X obj 290 290 hvezda;
#X obj 291 291 hvezda;
#X obj 292 292 hvezda;
#X obj 293 293 hvezda;
#X obj 294 294 hvezda;
#X obj 295 295 hvezda;
#X obj 296 296 hvezda;
#X obj 297 297 hvezda;
#X obj 298 298 hvezda;
#X obj 299 299 hvezda;
#X obj 300 300 hvezda;
#X obj 301 301 hvezda;
#X obj 302 302 hvezda;
#X obj 303 303 hvezda;
#X obj 304 304 hvezda;
#X obj 305 305 hvezda;
#X obj 306 306 hvezda;
#X obj 307 307 hvezda;
#X obj 308 308 hvezda;
#X obj 309 309 hvezda;
#X obj 310 310 hvezda;
#X obj 311 311 hvezda;
#X obj 312 312 hvezda;
#X obj 313 313 hvezda;
#X obj 314 314 hvezda;
#X obj 315 315 hvezda;
#X obj 316 316 hvezda;
#X obj 317 317 hvezda;
#X obj 318 318 hvezda;
#X obj 319 319 hvezda;
#X obj 320 320 hvezda;
#X obj 321 321 hvezda;
#X obj 322 322 hvezda;
#X obj 323 323 hvezda;
#X obj 324 324 hvezda;
#X obj 325 325 hvezda;
#X obj 326 326 hvezda;
#X obj 327 327 hvezda;
#X obj 328 328 hvezda;
#X obj 329 329 hvezda;
#X obj 330 330 hvezda;
#X obj 331 331 hvezda;
#X obj 332 332 hvezda;
#X obj 333 333 hvezda;
#X obj 334 334 hvezda;
#X obj 335 335 hvezda;
#X obj 336 336 hvezda;
#X obj 337 337 hvezda;
#X obj 338 338 hvezda;
#X obj 339 339 hvezda;
#X obj 340 340 hvezda;
#X obj 341 341 hvezda;
#X obj 342 342 hvezda;
#X obj 343 343 hvezda;
#X obj 344 344 hvezda;
#X obj 345 345 hvezda;
#X obj 346 346 hvezda;
#X obj 347 347 hvezda;
#X obj 348 348 hvezda;
#X obj 349 349 hvezda;
#X obj 350 350 hvezda;
#X obj 351 351 hvezda;
#X obj 352 352 hvezda;
#X obj 353 353 hvezda;
#X obj 354 354 hvezda;
#X obj 355 355 hvezda;
#X obj 356 356 hvezda;
#X obj 357 357 hvezda;
#X obj 358 358 hvezda;
#X obj 359 359 hvezda;
#X obj 360 360 hvezda;
#X obj 361 361 hvezda;
#X obj 362 362 hvezda;
#X obj 363 363 hvezda;
#X obj 364 364 hvezda;
#X obj 365 365 hvezda;
#X obj 366 366 hvezda;
#X obj 367 367 hvezda;
#X obj 368 368 hvezda;
#X obj 369 369 hvezda;
#X obj 370 370 hvezda;
#X obj 371 371 hvezda;
#X obj 372 372 hvezda;
#X obj 373 373 hvezda;
#X obj 374 374 hvezda;
#X obj 375 375 hvezda;
#X obj 376 376 hvezda;
#X obj 377 377 hvezda;
#X obj 378 378 hvezda;
#X obj 379 379 hvezda;
#X obj 380 380 hvezda;
#X obj 381 381 hvezda;
#X obj 382 382 hvezda;
#X obj 383 383 hvezda;
#X obj 384 384 hvezda;
#X obj 385 385 hvezda;
#X obj 386 386 hvezda;
#X obj 387 387 hvezda;
#X obj 388 388 hvezda;
#X obj 389 389 hvezda;
#X obj 390 390 hvezda;
#X obj 391 391 hvezda;
#X obj 392 392 hvezda;
#X obj 393 393 hvezda;
#X obj 394 394 hvezda;
#X obj 395 395 hvezda;
#X obj 396 396 hvezda;
#X obj 397 397 hvezda;
#X obj 398 398 hvezda;
#X obj 399 399 hvezda;
#X obj 400 400 hvezda;
#X obj 401 401 hvezda;
#X obj 402 402 hvezda;
#X obj 403 403 hvezda;
#X obj 404 404 hvezda;
#X obj 405 405 hvezda;
#X obj 406 406 hvezda;
#X obj 407 407 hvezda;
#X obj 408 408 hvezda;
#X obj 409 409 hvezda;
#X obj 410 410 hvezda;
#X obj 411 411 hvezda;
#X obj 412 412 hvezda;
#X obj 413 413 hvezda;
#X obj 414 414 hvezda;
#X obj 415 415 hvezda;
#X obj 416 416 hvezda;
#X obj 417 417 hvezda;
#X obj 418 418 hvezda;
#X obj 419 419 hvezda;
#X obj 420 420 hvezda;
#X obj 421 421 hvezda;
#X obj 422 422 hvezda;
#X obj 423 423 hvezda;
#X obj 424 424 hvezda;
#X obj 425 425 hvezda;
#X obj 426 426 hvezda;
#X obj 427 427 hvezda;
#X obj 428 428 hvezda;
#X obj 429 429 hvezda;
#X obj 430 430 hvezda;
#X obj 431 431 hvezda;
#X obj 432 432 hvezda;
#X obj 433 433 hvezda;
#X obj 434 434 hvezda;
#X obj 435 435 hvezda;
#X obj 436 436 hvezda;
#X obj 437 437 hvezda;
#X obj 438 438 hvezda;
#X obj 439 439 hvezda;
#X obj 440 440 hvezda;
#X obj 441 441 hvezda;
#X obj 442 442 hvezda;
#X obj 443 443 hvezda;
#X obj 444 444 hvezda;
#X obj 445 445 hvezda;
#X obj 446 446 hvezda;
#X obj 447 447 hvezda;
#X obj 448 448 hvezda;
#X obj 449 449 hvezda;
#X obj 450 450 hvezda;
#X obj 451 451 hvezda;
#X obj 452 452 hvezda;
#X obj 453 453 hvezda;
#X obj 454 454 hvezda;
#X obj 455 455 hvezda;
#X obj 456 456 hvezda;
#X obj 457 457 hvezda;
#X obj 458 458 hvezda;
#X obj 459 459 hvezda;
#X obj 460 460 hvezda;
#X obj 461 461 hvezda;
#X obj 462 462 hvezda;
#X obj 463 463 hvezda;
#X obj 464 464 hvezda;
#X obj 465 465 hvezda;
#X obj 466 466 hvezda;
#X obj 467 467 hvezda;
#X obj 468 468 hvezda;
#X obj 469 469 hvezda;
#X obj 470 470 hvezda;
#X obj 471 471 hvezda;
#X obj 472 472 hvezda;
#X obj 473 473 hvezda;
#X obj 474 474 hvezda;
#X obj 475 475 hvezda;
#X obj 476 476 hvezda;
#X obj 477 477 hvezda;
#X obj 478 478 hvezda;
#X obj 479 479 hvezda;
#X obj 480 480 hvezda;
#X obj 481 481 hvezda;
#X obj 482 482 hvezda;
#X obj 483 483 hvezda;
#X obj 484 484 hvezda;
#X obj 485 485 hvezda;
#X obj 486 486 hvezda;
#X obj 487 487 hvezda;
#X obj 488 488 hvezda;
#X obj 489 489 hvezda;
#X obj 490 490 hvezda;
#X obj 491 491 hvezda;
#X obj 492 492 hvezda;
#X obj 493 493 hvezda;
#X obj 494 494 hvezda;
#X obj 495 495 hvezda;
#X obj 496 496 hvezda;
#X obj 497 497 hvezda;
#X obj 498 498 hvezda;
#X obj 499 499 hvezda;
#X obj 500 500 hvezda;
#X obj 501 501 hvezda;
#X obj 502 502 hvezda;
#X obj 503 503 hvezda;
#X obj 504 504 hvezda;
#X obj 505 505 hvezda;
#X obj 506 506 hvezda;
#X obj 507 507 hvezda;
#X obj 508 508 hvezda;
#X obj 509 509 hvezda;
#X obj 510 510 hvezda;
#X obj 511 511 hvezda;
#X obj 512 512 hvezda;
#X obj 513 513 hvezda;
#X obj 514 514 hvezda;
#X obj 515 515 hvezda;
#X obj 516 516 hvezda;
#X obj 517 517 hvezda;
#X obj 518 518 hvezda;
#X obj 519 519 hvezda;
#X obj 520 520 hvezda;
#X obj 521 521 hvezda;
#X obj 522 522 hvezda;
#X obj 523 523 hvezda;
#X obj 524 524 hvezda;
#X obj 525 525 hvezda;
#X obj 526 526 hvezda;
#X obj 527 527 hvezda;
#X obj 528 528 hvezda;
#X obj 529 529 hvezda;
#X obj 530 530 hvezda;
#X obj 531 531 hvezda;
#X obj 532 532 hvezda;
#X obj 533 533 hvezda;
#X obj 534 534 hvezda;
#X obj 535 535 hvezda;
#X obj 536 536 hvezda;
#X obj 537 537 hvezda;
#X obj 538 538 hvezda;
#X obj 539 539 hvezda;
#X obj 540 540 hvezda;
#X obj 541 541 hvezda;
#X obj 542 542 hvezda;
#X obj 543 543 hvezda;
#X obj 544 544 hvezda;
#X obj 545 545 hvezda;
#X obj 546 546 hvezda;
#X obj 547 547 hvezda;
#X obj 548 548 hvezda;
#X obj 549 549 hvezda;
#X obj 550 550 hvezda;
#X obj 551 551 hvezda;
#X obj 552 552 hvezda;
#X obj 553 553 hvezda;
#X obj 554 554 hvezda;
#X obj 555 555 hvezda;
#X obj 556 556 hvezda;
#X obj 557 557 hvezda;
#X obj 558 558 hvezda;
#X obj 559 559 hvezda;
#X obj 560 560 hvezda;
#X obj 561 561 hvezda;
#X obj 562 562 hvezda;
#X obj 563 563 hvezda;
#X obj 564 564 hvezda;
#X obj 565 565 hvezda;
#X obj 566 566 hvezda;
#X obj 567 567 hvezda;
#X obj 568 568 hvezda;
#X obj 569 569 hvezda;
#X obj 570 570 hvezda;
#X obj 571 571 hvezda;
#X obj 572 572 hvezda;
#X obj 573 573 hvezda;
#X obj 574 574 hvezda;
#X obj 575 575 hvezda;
#X obj 576 576 hvezda;
#X obj 577 577 hvezda;
#X obj 578 578 hvezda;
#X obj 579 579 hvezda;
#X obj 580 580 hvezda;
#X obj 581 581 hvezda;
#X obj 582 582 hvezda;
#X obj 583 583 hvezda;
#X obj 584 584 hvezda;
#X obj 585 585 hvezda;
#X obj 586 586 hvezda;
#X obj 587 587 hvezda;
#X obj 588 588 hvezda;
#X obj 589 589 hvezda;
#X obj 590 590 hvezda;
#X obj 591 591 hvezda;
#X obj 592 592 hvezda;
#X obj 593 593 hvezda;
#X obj 594 594 hvezda;
#X obj 595 595 hvezda;
#X obj 596 596 hvezda;
#X obj 597 597 hvezda;
#X obj 598 598 hvezda;
#X obj 599 599 hvezda;
#X obj 600 600 hvezda;
#X obj 601 601 hvezda;
#X obj 602 602 hvezda;
#X obj 603 603 hvezda;
#X obj 604 604 hvezda;
#X obj 605 605 hvezda;
#X obj 606 606 hvezda;
#X obj 607 607 hvezda;
#X obj 608 608 hvezda;
#X obj 609 609 hvezda;
#X obj 610 610 hvezda;
#X obj 611 611 hvezda;
#X obj 612 612 hvezda;
#X obj 613 613 hvezda;
#X obj 614 614 hvezda;
#X obj 615 615 hvezda;
#X obj 616 616 hvezda;
#X obj 617 617 hvezda;
#X obj 618 618 hvezda;
#X obj 619 619 hvezda;
#X obj 620 620 hvezda;
#X obj 621 621 hvezda;
#X obj 622 622 hvezda;
#X obj 623 623 hvezda;
#X obj 624 624 hvezda;
#X obj 625 625 hvezda;
#X obj 626 626 hvezda;
#X obj 627 627 hvezda;
#X obj 628 628 hvezda;
#X obj 629 629 hvezda;
#X obj 630 630 hvezda;
#X obj 631 631 hvezda;
#X obj 632 632 hvezda;
#X obj 633 633 hvezda;
#X obj 634 634 hvezda;
#X obj 635 635 hvezda;
#X obj 636 636 hvezda;
#X obj 637 637 hvezda;
#X obj 638 638 hvezda;
#X obj 639 639 hvezda;
#X obj 640 640 hvezda;
#X obj 641 641 hvezda;
#X obj 642 642 hvezda;
#X obj 643 643 hvezda;
#X obj 644 644 hvezda;
#X obj 645 645 hvezda;
#X obj 646 646 hvezda;
#X obj 647 647 hvezda;
#X obj 648 648 hvezda;
#X obj 649 649 hvezda;
#X obj 650 650 hvezda;
#X obj 651 651 hvezda;
#X obj 652 652 hvezda;
#X obj 653 653 hvezda;
#X obj 654 654 hvezda;
#X obj 655 655 hvezda;
#X obj 656 656 hvezda;
#X obj 657 657 hvezda;
#X obj 658 658 hvezda;
#X obj 659 659 hvezda;
#X obj 660 660 hvezda;
#X obj 661 661 hvezda;
#X obj 662 662 hvezda;
#X obj 663 663 hvezda;
#X obj 664 664 hvezda;
#X obj 665 665 hvezda;
#X obj 666 666 hvezda;
#X obj 667 667 hvezda;
#X obj 668 668 hvezda;
#X obj 669 669 hvezda;
#X obj 670 670 hvezda;
#X obj 671 671 hvezda;
#X obj 672 672 hvezda;
#X obj 673 673 hvezda;
#X obj 674 674 hvezda;
#X obj 675 675 hvezda;
#X obj 676 676 hvezda;
#X obj 677 677 hvezda;
#X obj 678 678 hvezda;
#X obj 679 679 hvezda;
#X obj 680 680 hvezda;
#X obj 681 681 hvezda;
#X obj 682 682 hvezda;
#X obj 683 683 hvezda;
#X obj 684 684 hvezda;
#X obj 685 685 hvezda;
#X obj 686 686 hvezda;
#X obj 687 687 hvezda;
#X obj 688 688 hvezda;
#X obj 689 689 hvezda;
#X obj 690 690 hvezda;
#X obj 691 691 hvezda;
#X obj 692 692 hvezda;
#X obj 693 693 hvezda;
#X obj 694 694 hvezda;
#X obj 695 695 hvezda;
#X obj 696 696 hvezda;
#X obj 697 697 hvezda;
#X obj 698 698 hvezda;
#X obj 699 699 hvezda;
#X obj 700 700 hvezda;
#X obj 701 701 hvezda;
#X obj 702 702 hvezda;
#X obj 703 703 hvezda;
#X obj 704 704 hvezda;
#X obj 705 705 hvezda;
#X obj 706 706 hvezda;
#X obj 707 707 hvezda;
#X obj 708 708 hvezda;
#X obj 709 709 hvezda;
#X obj 710 710 hvezda;
#X obj 711 711 hvezda;
#X obj 712 712 hvezda;
#X obj 713 713 hvezda;
#X obj 714 714 hvezda;
#X obj 715 715 hvezda;
#X obj 716 716 hvezda;
#X obj 717 717 hvezda;
#X obj 718 718 hvezda;
#X obj 719 719 hvezda;
#X obj 720 720 hvezda;
#X obj 721 721 hvezda;
#X obj 722 722 hvezda;
#X obj 723 723 hvezda;
#X obj 724 724 hvezda;
#X obj 725 725 hvezda;
#X obj 726 726 hvezda;
#X obj 727 727 hvezda;
#X obj 728 728 hvezda;
#X obj 729 729 hvezda;
#X obj 730 730 hvezda;
#X obj 731 731 hvezda;
#X obj 732 732 hvezda;
#X obj 733 733 hvezda;
#X obj 734 734 hvezda;
#X obj 735 735 hvezda;
#X obj 736 736 hvezda;
#X obj 737 737 hvezda;
#X obj 738 738 hvezda;
#X obj 739 739 hvezda;
#X obj 740 740 hvezda;
#X obj 741 741 hvezda;
#X obj 742 742 hvezda;
#X obj 743 743 hvezda;
#X obj 744 744 hvezda;
#X obj 745 745 hvezda;
#X obj 746 746 hvezda;
#X obj 747 747 hvezda;
#X obj 748 748 hvezda;
#X obj 749 749 hvezda;
#X obj 750 750 hvezda;
#X obj 751 751 hvezda;
#X obj 752 752 hvezda;
#X obj 753 753 hvezda;
#X obj 754 754 hvezda;
#X obj 755 755 hvezda;
#X obj 756 756 hvezda;
#X obj 757 757 hvezda;
#X obj 758 758 hvezda;
#X obj 759 759 hvezda;
#X obj 760 760 hvezda;
#X obj 761 761 hvezda;
#X obj 762 762 hvezda;
#X obj 763 763 hvezda;
#X obj 764 764 hvezda;
#X obj 765 765 hvezda;
#X obj 766 766 hvezda;
#X obj 767 767 hvezda;
#X obj 768 768 hvezda;
#X obj 769 769 hvezda;
#X obj 770 770 hvezda;
#X obj 771 771 hvezda;
#X obj 772 772 hvezda;
#X obj 773 773 hvezda;
#X obj 774 774 hvezda;
#X obj 775 775 hvezda;
#X obj 776 776 hvezda;
#X obj 777 777 hvezda;
#X obj 778 778 hvezda;
#X obj 779 779 hvezda;
#X obj 780 780 hvezda;
#X obj 781 781 hvezda;
#X obj 782 782 hvezda;
#X obj 783 783 hvezda;
#X obj 784 784 hvezda;
#X obj 785 785 hvezda;
#X obj 786 786 hvezda;
#X obj 787 787 hvezda;
#X obj 788 788 hvezda;
#X obj 789 789 hvezda;
#X obj 790 790 hvezda;
#X obj 791 791 hvezda;
#X obj 792 792 hvezda;
#X obj 793 793 hvezda;
#X obj 794 794 hvezda;
#X obj 795 795 hvezda;
#X obj 796 796 hvezda;
#X obj 797 797 hvezda;
#X obj 798 798 hvezda;
#X obj 799 799 hvezda;
#X obj 800 800 hvezda;
#X obj 801 801 hvezda;
#X obj 802 802 hvezda;
#X obj 803 803 hvezda;
#X obj 804 804 hvezda;
#X obj 805 805 hvezda;
#X obj 806 806 hvezda;
#X obj 807 807 hvezda;
#X obj 808 808 hvezda;
#X obj 809 809 hvezda;
#X obj 810 810 hvezda;
#X obj 811 811 hvezda;
#X obj 812 812 hvezda;
#X obj 813 813 hvezda;
#X obj 814 814 hvezda;
#X obj 815 815 hvezda;
#X obj 816 816 hvezda;
#X obj 817 817 hvezda;
#X obj 818 818 hvezda;
#X obj 819 819 hvezda;
#X obj 820 820 hvezda;
#X obj 821 821 hvezda;
#X obj 822 822 hvezda;
#X obj 823 823 hvezda;
#X obj 824 824 hvezda;
#X obj 825 825 hvezda;
#X obj 826 826 hvezda;
#X obj 827 827 hvezda;
#X obj 828 828 hvezda;
#X obj 829 829 hvezda;
#X obj 830 830 hvezda;
#X obj 831 831 hvezda;
#X obj 832 832 hvezda;
#X obj 833 833 hvezda;
#X obj 834 834 hvezda;
#X obj 835 835 hvezda;
#X obj 836 836 hvezda;
#X obj 837 837 hvezda;
#X obj 838 838 hvezda;
#X obj 839 839 hvezda;
#X obj 840 840 hvezda;
#X obj 841 841 hvezda;
#X obj 842 842 hvezda;
#X obj 843 843 hvezda;
#X obj 844 844 hvezda;
#X obj 845 845 hvezda;
#X obj 846 846 hvezda;
#X obj 847 847 hvezda;
#X obj 848 848 hvezda;
#X obj 849 849 hvezda;
#X obj 850 850 hvezda;
#X obj 851 851 hvezda;
#X obj 852 852 hvezda;
#X obj 853 853 hvezda;
#X obj 854 854 hvezda;
#X obj 855 855 hvezda;
#X obj 856 856 hvezda;
#X obj 857 857 hvezda;
#X obj 858 858 hvezda;
#X obj 859 859 hvezda;
#X obj 860 860 hvezda;
#X obj 861 861 hvezda;
#X obj 862 862 hvezda;
#X obj 863 863 hvezda;
#X obj 864 864 hvezda;
#X obj 865 865 hvezda;
#X obj 866 866 hvezda;
#X obj 867 867 hvezda;
#X obj 868 868 hvezda;
#X obj 869 869 hvezda;
#X obj 870 870 hvezda;
#X obj 871 871 hvezda;
#X obj 872 872 hvezda;
#X obj 873 873 hvezda;
#X obj 874 874 hvezda;
#X obj 875 875 hvezda;
#X obj 876 876 hvezda;
#X obj 877 877 hvezda;
#X obj 878 878 hvezda;
#X obj 879 879 hvezda;
#X obj 880 880 hvezda;
#X obj 881 881 hvezda;
#X obj 882 882 hvezda;
#X obj 883 883 hvezda;
#X obj 884 884 hvezda;
#X obj 885 885 hvezda;
#X obj 886 886 hvezda;
#X obj 887 887 hvezda;
#X obj 888 888 hvezda;
#X obj 889 889 hvezda;
#X obj 890 890 hvezda;
#X obj 891 891 hvezda;
#X obj 892 892 hvezda;
#X obj 893 893 hvezda;
#X obj 894 894 hvezda;
#X obj 895 895 hvezda;
#X obj 896 896 hvezda;
#X obj 897 897 hvezda;
#X obj 898 898 hvezda;
#X obj 899 899 hvezda;
#X obj 900 900 hvezda;
#X obj 901 901 hvezda;
#X obj 902 902 hvezda;
#X obj 903 903 hvezda;
#X obj 904 904 hvezda;
#X obj 905 905 hvezda;
#X obj 906 906 hvezda;
#X obj 907 907 hvezda;
#X obj 908 908 hvezda;
#X obj 909 909 hvezda;
#X obj 910 910 hvezda;
#X obj 911 911 hvezda;
#X obj 912 912 hvezda;
#X obj 913 913 hvezda;
#X obj 914 914 hvezda;
#X obj 915 915 hvezda;
#X obj 916 916 hvezda;
#X obj 917 917 hvezda;
#X obj 918 918 hvezda;
#X obj 919 919 hvezda;
#X obj 920 920 hvezda;
#X obj 921 921 hvezda;
#X obj 922 922 hvezda;
#X obj 923 923 hvezda;
#X obj 924 924 hvezda;
#X obj 925 925 hvezda;
#X obj 926 926 hvezda;
#X obj 927 927 hvezda;
#X obj 928 928 hvezda;
#X obj 929 929 hvezda;
#X obj 930 930 hvezda;
#X obj 931 931 hvezda;
#X obj 932 932 hvezda;
#X obj 933 933 hvezda;
#X obj 934 934 hvezda;
#X obj 935 935 hvezda;
#X obj 936 936 hvezda;
#X obj 937 937 hvezda;
#X obj 938 938 hvezda;
#X obj 939 939 hvezda;
#X obj 940 940 hvezda;
#X obj 941 941 hvezda;
#X obj 942 942 hvezda;
#X obj 943 943 hvezda;
#X obj 944 944 hvezda;
#X obj 945 945 hvezda;
#X obj 946 946 hvezda;
#X obj 947 947 hvezda;
#X obj 948 948 hvezda;
#X obj 949 949 hvezda;
#X obj 950 950 hvezda;
#X obj 951 951 hvezda;
#X obj 952 952 hvezda;
#X obj 953 953 hvezda;
#X obj 954 954 hvezda;
#X obj 955 955 hvezda;
#X obj 956 956 hvezda;
#X obj 957 957 hvezda;
#X obj 958 958 hvezda;
#X obj 959 959 hvezda;
#X obj 960 960 hvezda;
#X obj 961 961 hvezda;
#X obj 962 962 hvezda;
#X obj 963 963 hvezda;
#X obj 964 964 hvezda;
#X obj 965 965 hvezda;
#X obj 966 966 hvezda;
#X obj 967 967 hvezda;
#X obj 968 968 hvezda;
#X obj 969 969 hvezda;
#X obj 970 970 hvezda;
#X obj 971 971 hvezda;
#X obj 972 972 hvezda;
#X obj 973 973 hvezda;
#X obj 974 974 hvezda;
#X obj 975 975 hvezda;
#X obj 976 976 hvezda;
#X obj 977 977 hvezda;
#X obj 978 978 hvezda;
#X obj 979 979 hvezda;
#X obj 980 980 hvezda;
#X obj 981 981 hvezda;
#X obj 982 982 hvezda;
#X obj 983 983 hvezda;
#X obj 984 984 hvezda;
#X obj 985 985 hvezda;
#X obj 986 986 hvezda;
#X obj 987 987 hvezda;
#X obj 988 988 hvezda;
#X obj 989 989 hvezda;
#X obj 990 990 hvezda;
#X obj 991 991 hvezda;
#X obj 992 992 hvezda;
#X obj 993 993 hvezda;
#X obj 994 994 hvezda;
#X obj 995 995 hvezda;
#X obj 996 996 hvezda;
#X obj 997 997 hvezda;
#X obj 998 998 hvezda;
#X obj 999 999 hvezda;
#X obj 1000 1000 hvezda;
#X restore 251 312 pd array;
#X obj 158 321 t b b;
#X obj 137 350 s init;
#X msg 190 422 obj \$1 \$2 hvezda;
#X obj 190 351 counter 1 1000;
#X obj 190 394 pack i i;
#X obj 158 244 tgl 15 0 empty empty empty 17 7 0 10 -262144 -1 -1 0
1;
#X msg -52 382 \; pd-array vis 1 \, selectall \; pd-array cut \; pd-array
vis 0 \;;
#X floatatom 315 391 5 0 0 0 - - -;
#X obj 314 443 sel 1;
#X msg 313 467 0;
#X obj 158 270 metro 55;
#X obj 59 313 bng 15 250 50 0 empty empty empty 17 7 0 10 -262144 -1
-1;
#X obj -18 186 inlet;
#X obj 140 189 inlet;
#X obj 277 185 inlet;
#X obj 48 252 loadbang;
#X obj 109 459 outlet;
#X obj 315 417 >= 1000;
#X connect 2 0 3 0;
#X connect 2 1 5 0;
#X connect 4 0 0 0;
#X connect 5 0 6 1;
#X connect 5 0 9 0;
#X connect 5 0 6 0;
#X connect 6 0 4 0;
#X connect 7 0 12 0;
#X connect 9 0 19 0;
#X connect 10 0 11 0;
#X connect 11 0 7 0;
#X connect 12 0 2 0;
#X connect 13 0 5 2;
#X connect 13 0 8 0;
#X connect 14 0 13 0;
#X connect 15 0 7 0;
#X connect 16 0 2 0;
#X connect 17 0 13 0;
#X connect 19 0 10 0;
#X restore 240 357 pd stars;
#X obj 220 313 bng 33 250 50 0 empty empty CLR 17 7 0 10 -258113 -1
-1;
#X obj 316 329 bng 15 250 50 0 empty empty one 17 7 0 10 -262144 -1
-1;
#X obj 265 312 tgl 33 0 empty empty auto 17 7 0 10 -4034 -1 -1 1 1
;
#X msg 263 178 5555;
#X obj -135 429 shell;
#X msg -136 394 xsetroot;
#X msg -59 393 sudo killall xscreensaver;
#X obj 240 385 bng 15 250 50 0 empty empty empty 17 7 0 10 -262144
-1 -1;
#N canvas 469 1033 705 575 terminal 0;
#X obj 51 -3221 gemhead;
#X obj 62 -3191 bng 25 250 50 0 empty empty empty 0 -6 0 8 -262144
-1 -1;
#X text 106 -3216 movie-clip;
#X obj 122 -2904 unpack 0 0 0;
#X floatatom 108 -2881 5 0 0 3 length - -;
#X floatatom 157 -2881 5 0 0 3 width - -;
#X floatatom 207 -2881 5 0 0 3 height - -;
#X obj 205 -2941 bng 15 250 50 0 empty empty end_reached 20 7 0 10
-262144 -1 -1;
#X obj 62 -3162 openpanel;
#X msg 90 -3085 auto \$1;
#X obj 90 -3103 tgl 15 0 empty empty empty 0 -6 0 8 -262144 -1 -1 1
1;
#X msg 101 -3061 colorspace Grey;
#X obj 51 -2943 pix_movie;
#X obj 113 -3037 tgl 15 0 empty empty empty 0 -6 0 8 -262144 -1 -1
0 1;
#X obj 105 -2984 hsl 128 15 0 127 0 0 empty empty empty -2 -8 0 10
-262144 -1 -1 0 1;
#X floatatom 102 -2964 5 0 0 1 frame_number - -;
#N canvas 830 50 450 300 demo 0;
#X obj 23 26 inlet;
#X text 126 127 win32:;
#X text 116 190 linux \, os-X:;
#X obj 79 257 outlet;
#X obj 20 50 bng 17 250 50 0 empty empty empty 17 7 0 10 -262144 -1
-1;
#X obj 38 51 cnv 15 81 15 empty empty demo_movie 4 8 0 10 -262144 -1
0;
#X msg 29 102 open examples/data/alea.mpg;
#X msg 151 147 open examples/data/homer.avi;
#X msg 144 210 open examples/data/anim-1.mov;
#X connect 0 0 4 0;
#X connect 4 0 6 0;
#X connect 6 0 3 0;
#X connect 7 0 3 0;
#X connect 8 0 3 0;
#X coords 0 -1 1 1 100 17 1 20 50;
#X restore 74 -3122 pd demo movie;
#X msg 113 -3018 rectangle \$1;
#X msg 211 -3140 open zen.avi;
#X msg 62 -3137 open \$1;
#X obj 208 -3170 loadbang;
#X obj 51 -2796 rotateXYZ 0 180 0;
#X floatatom 128 -2829 5 0 0 0 - - -;
#X obj 52 -3302 inlet;
#X obj 51 -2768 rectangle 5.4 5;
#X obj 137 -3266 sel 1;
#X msg 147 -3172 0;
#X obj 338 -2999 sel 11520;
#X obj 337 -2957 print END;
#X obj 50 -2842 translateXYZ 0 0 0.2;
#X connect 0 0 12 0;
#X connect 1 0 8 0;
#X connect 3 0 4 0;
#X connect 3 1 5 0;
#X connect 3 2 6 0;
#X connect 7 0 26 0;
#X connect 8 0 19 0;
#X connect 9 0 12 0;
#X connect 10 0 9 0;
#X connect 11 0 12 0;
#X connect 12 0 29 0;
#X connect 12 1 3 0;
#X connect 12 2 7 0;
#X connect 13 0 17 0;
#X connect 14 0 15 0;
#X connect 15 0 12 1;
#X connect 16 0 12 0;
#X connect 17 0 12 0;
#X connect 18 0 12 0;
#X connect 19 0 12 0;
#X connect 20 0 18 0;
#X connect 20 0 11 0;
#X connect 20 0 26 0;
#X connect 21 0 24 0;
#X connect 22 0 21 2;
#X connect 23 0 0 0;
#X connect 23 0 10 0;
#X connect 23 0 25 0;
#X connect 25 0 18 0;
#X connect 26 0 0 0;
#X connect 29 0 21 0;
#X restore 23 318 pd terminal;
#X obj 23 280 tgl 33 0 empty empty empty 17 7 0 10 -258113 -1 -1 1
1;
#X msg 483 155 -140 11111;
#X floatatom 777 -134 5 0 0 0 - - -;
#X obj 623 112 s onoff;
#X obj 623 88 tgl 15 0 empty empty empty 17 7 0 10 -262144 -1 -1 0
1;
#X obj 682 109 s kruh;
#X obj 682 88 tgl 15 0 empty empty empty 17 7 0 10 -262144 -1 -1 0
1;
#N canvas 532 1111 831 597 linda 0;
#X msg -864 -135 draw line;
#X obj -770 -269 gemhead;
#X obj -747 -18 torus 1;
#X obj -747 -144 rotateXYZ;
#X obj -864 -210 loadbang;
#X obj -747 -245 translateXYZ;
#X obj -711 -272 r x;
#X obj -684 -272 r y;
#X msg -708 -80 0;
#X obj -815 -327 r onoff;
#X floatatom -632 -62 5 0 20 2 thickness - -;
#X floatatom -608 -102 5 0 0 0 - - -;
#X obj -723 -325 tgl 15 0 empty empty empty 17 7 0 10 -262144 -1 -1
0 1;
#X msg -493 -150 0 0;
#X msg -447 -150 800 1111;
#X obj -493 -98 line;
#X obj -493 -66 / 100;
#X obj -492 -181 t b b;
#X obj -484 -290 bng 15 250 50 0 empty empty empty 17 7 0 10 -262144
-1 -1;
#X obj -675 -341 inlet;
#X obj -599 -314 sel 6;
#X obj -363 -277 del 777;
#X obj -363 -247 del 777;
#X obj -363 -217 del 777;
#X obj -363 -187 del 777;
#X obj -363 -157 del 777;
#X msg -577 -238 6;
#X connect 0 0 2 0;
#X connect 1 0 5 0;
#X connect 3 0 2 0;
#X connect 4 0 0 0;
#X connect 4 0 8 0;
#X connect 4 0 13 0;
#X connect 4 0 26 0;
#X connect 5 0 3 0;
#X connect 6 0 5 1;
#X connect 7 0 5 2;
#X connect 8 0 2 3;
#X connect 9 0 1 0;
#X connect 10 0 2 3;
#X connect 11 0 2 1;
#X connect 12 0 1 0;
#X connect 13 0 15 0;
#X connect 14 0 15 0;
#X connect 15 0 16 0;
#X connect 16 0 11 0;
#X connect 17 0 14 0;
#X connect 17 1 13 0;
#X connect 18 0 17 0;
#X connect 18 0 21 0;
#X connect 19 0 20 0;
#X connect 20 0 18 0;
#X connect 21 0 17 0;
#X connect 21 0 22 0;
#X connect 22 0 17 0;
#X connect 22 0 23 0;
#X connect 23 0 17 0;
#X connect 23 0 24 0;
#X connect 24 0 17 0;
#X connect 24 0 25 0;
#X connect 25 0 17 0;
#X connect 26 0 2 2;
#X restore 122 110 pd linda;
#X connect 1 0 2 0;
#X connect 3 0 2 0;
#X connect 5 0 4 0;
#X connect 6 0 19 0;
#X connect 7 0 6 0;
#X connect 7 1 6 1;
#X connect 8 0 9 0;
#X connect 8 0 41 0;
#X connect 9 0 6 0;
#X connect 12 0 14 0;
#X connect 13 0 33 0;
#X connect 16 0 18 0;
#X connect 19 0 17 0;
#X connect 19 0 16 0;
#X connect 20 0 5 0;
#X connect 20 0 4 0;
#X connect 20 0 8 0;
#X connect 20 0 7 0;
#X connect 20 0 23 0;
#X connect 22 0 25 0;
#X connect 23 0 22 0;
#X connect 23 0 36 0;
#X connect 24 0 22 0;
#X connect 25 0 5 0;
#X connect 26 0 27 0;
#X connect 31 0 29 0;
#X connect 32 0 30 0;
#X connect 33 0 14 0;
#X connect 34 0 33 1;
#X connect 35 0 33 2;
#X connect 36 0 24 0;
#X connect 37 0 41 0;
#X connect 38 0 37 0;
#X connect 39 0 12 0;
#X connect 41 0 28 0;
#X connect 41 0 14 1;
#X connect 45 0 13 0;
#X connect 47 0 84 0;
#X connect 47 1 84 0;
#X connect 48 0 66 0;
#X connect 48 0 67 0;
#X connect 49 0 20 0;
#X connect 50 0 52 0;
#X connect 51 0 83 0;
#X connect 51 0 44 0;
#X connect 52 0 51 0;
#X connect 53 0 54 0;
#X connect 54 0 59 0;
#X connect 55 0 65 1;
#X connect 56 0 58 0;
#X connect 57 0 64 0;
#X connect 58 0 57 0;
#X connect 59 0 65 0;
#X connect 60 0 57 1;
#X connect 60 0 59 1;
#X connect 61 0 57 2;
#X connect 61 0 59 2;
#X connect 62 0 56 0;
#X connect 62 0 53 0;
#X connect 66 0 69 0;
#X connect 67 0 68 0;
#X connect 67 0 86 1;
#X connect 70 0 62 0;
#X connect 71 0 74 0;
#X connect 72 0 48 0;
#X connect 73 0 74 0;
#X connect 74 0 55 0;
#X connect 75 0 73 0;
#X connect 76 0 50 0;
#X connect 77 0 71 0;
#X connect 77 0 63 0;
#X connect 78 0 72 0;
#X connect 78 0 80 0;
#X connect 78 0 86 0;
#X connect 79 0 81 0;
#X connect 79 0 82 0;
#X connect 80 0 79 0;
#X connect 81 0 68 0;
#X connect 81 0 86 1;
#X connect 82 0 69 0;
#X connect 85 0 49 0;
#X connect 85 0 115 0;
#X connect 86 0 85 0;
#X connect 87 0 0 0;
#X connect 89 0 88 0;
#X connect 90 0 88 1;
#X connect 91 0 102 0;
#X connect 92 0 88 2;
#X connect 93 0 92 0;
#X connect 94 0 93 0;
#X connect 95 0 93 0;
#X connect 96 0 93 0;
#X connect 97 0 93 0;
#X connect 98 0 106 0;
#X connect 99 0 98 0;
#X connect 100 0 98 2;
#X connect 101 0 98 1;
#X connect 102 0 90 0;
#X connect 104 0 103 0;
#X connect 105 0 103 0;
#X connect 108 0 107 0;
#X connect 109 0 93 0;
#X connect 110 0 71 0;
#X connect 112 0 111 0;
#X connect 114 0 113 0;
