#N canvas 503 43 774 746 10;
#X obj -171 -4 cnv 15 100 60 empty empty empty 20 12 0 14 -195568 -66577
0;
#N canvas 0 0 450 300 gemwin 0;
#X obj 132 136 gemwin;
#X obj 67 89 outlet;
#X obj 67 10 inlet;
#X obj 67 41 route create;
#X msg 67 70 set destroy;
#X msg 142 68 set create;
#X msg 198 112 destroy;
#X msg 132 112 create \, 1;
#X connect 2 0 3 0;
#X connect 3 0 4 0;
#X connect 3 0 7 0;
#X connect 3 1 5 0;
#X connect 3 1 6 0;
#X connect 4 0 1 0;
#X connect 5 0 1 0;
#X connect 6 0 0 0;
#X connect 7 0 0 0;
#X restore -166 35 pd gemwin;
#X msg -166 16 destroy;
#X text -170 -5 Create window:;
#X obj -62 -4 loadbang;
#X obj -62 21 s bang;
#X obj 301 3 hradio 15 1 0 8 empty empty empty 0 -8 0 10 -262144 -1
-1 5;
#X obj -1 -4 bng 15 250 50 0 empty empty empty 17 7 0 10 -262144 -1
-1;
#X obj 298 63 s slices;
#X floatatom 257 59 5 0 0 0 - - -;
#X floatatom 259 2 5 0 0 0 - - -;
#X floatatom 234 218 5 0 0 0 - - -;
#X floatatom 348 385 5 0 0 0 - - -;
#X floatatom 311 499 5 0 0 0 - - -;
#X floatatom 351 497 5 0 0 0 - - -;
#X floatatom 317 598 5 0 0 0 - - -;
#X floatatom 357 596 5 0 0 0 - - -;
#X floatatom 318 641 5 0 0 0 - - -;
#X floatatom 481 70 5 0 0 0 - - -;
#X obj 527 104 /;
#X floatatom 527 133 5 0 0 0 - - -;
#X floatatom 527 49 5 0 0 0 - - -;
#X obj 527 69 t b f;
#X obj 527 28 * 2;
#X floatatom -36 648 5 0 0 0 - - -;
#X msg -105 649 draw line;
#X obj -154 647 gemhead;
#X obj 315 620 mnoho2 3;
#X obj 310 408 mnoho2 3;
#X obj 313 520 mnoho2 3;
#X obj -140 687 circle 3;
#X obj -105 626 loadbang;
#X obj -163 626 tgl 15 0 empty empty empty 17 7 0 10 -262144 -1 -1
0 1;
#X obj 331 35 t b;
#X msg 480 47 360;
#X text -175 82 ( square root (slices / 2) / 2);
#X text -173 63 diagonal square = a × sqrt / 2;
#X floatatom -46 552 5 0 0 0 - - -;
#X msg -115 553 draw line;
#X obj -164 551 gemhead;
#X obj -150 591 circle 3;
#X obj -115 530 loadbang;
#X obj -173 530 tgl 15 0 empty empty empty 17 7 0 10 -262144 -1 -1
1 1;
#X obj -39 600 - 0.46;
#X floatatom 20 544 5 0 0 0 - - -;
#X obj -12 573 t b f;
#X floatatom 271 90 5 0 0 0 - - -;
#X floatatom 528 2 5 0 0 0 - - -;
#X floatatom 10 133 5 0 0 0 - - -;
#X floatatom 353 133 5 0 0 0 - - -;
#X obj 392 177 /;
#X floatatom 388 204 5 0 0 0 - - -;
#X floatatom 430 122 5 0 0 0 - - -;
#X obj 399 148 t b f;
#X msg 347 220 180;
#X obj 377 256 -;
#X floatatom 370 286 5 0 0 0 - - -;
#X text -128 258;
#X obj 22 239 * 2;
#X obj 22 217 sin;
#X floatatom 115 457 5 0 0 0 - - -;
#X obj 115 480 * 2;
#X obj 137 551 /;
#X obj 125 513 t b f;
#X floatatom 138 576 5 0 0 0 - - -;
#X floatatom 22 282 5 0 0 0 - - -;
#X obj 22 261 *;
#X text -174 102 Length of the side of the polygon: a = 2 * r * sin
(PI / n);
#X obj 22 195 /;
#X msg 3 174 3.14;
#X obj 10 153 t b f;
#X obj -124 220 /;
#X floatatom -124 251 5 0 0 0 - - -;
#X msg -139 180 360;
#X obj -139 279 -;
#X floatatom -139 320 5 0 0 0 - - -;
#X text 141 216 radius R1 ==>>;
#X text -70 282 side length >;
#X text -87 251 < outer angle;
#X text -123 133 number of segments >;
#X obj -64 321 + 270;
#X floatatom -64 346 5 0 0 0 - - -;
#X connect 1 0 2 0;
#X connect 2 0 1 0;
#X connect 4 0 5 0;
#X connect 6 0 33 0;
#X connect 6 0 8 0;
#X connect 7 0 5 0;
#X connect 11 0 28 0;
#X connect 11 0 37 0;
#X connect 11 0 66 1;
#X connect 12 0 28 1;
#X connect 13 0 29 0;
#X connect 13 0 24 0;
#X connect 14 0 29 1;
#X connect 15 0 27 0;
#X connect 16 0 27 1;
#X connect 18 0 19 0;
#X connect 19 0 20 0;
#X connect 20 0 14 0;
#X connect 21 0 22 0;
#X connect 22 0 19 0;
#X connect 22 1 19 1;
#X connect 23 0 21 0;
#X connect 24 0 30 1;
#X connect 25 0 30 0;
#X connect 26 0 30 0;
#X connect 27 0 17 0;
#X connect 31 0 25 0;
#X connect 32 0 26 0;
#X connect 33 0 11 0;
#X connect 33 0 34 0;
#X connect 34 0 18 0;
#X connect 37 0 40 1;
#X connect 37 0 43 0;
#X connect 38 0 40 0;
#X connect 39 0 40 0;
#X connect 41 0 38 0;
#X connect 42 0 39 0;
#X connect 44 0 45 0;
#X connect 45 0 43 0;
#X connect 45 1 43 1;
#X connect 46 0 8 0;
#X connect 47 0 23 0;
#X connect 48 0 70 0;
#X connect 48 0 71 1;
#X connect 49 0 50 0;
#X connect 50 0 51 0;
#X connect 51 0 55 1;
#X connect 52 0 53 0;
#X connect 53 0 50 0;
#X connect 53 1 50 1;
#X connect 54 0 55 0;
#X connect 55 0 56 0;
#X connect 58 0 66 0;
#X connect 59 0 58 0;
#X connect 60 0 61 0;
#X connect 61 0 63 0;
#X connect 62 0 64 0;
#X connect 63 0 62 0;
#X connect 63 1 62 1;
#X connect 66 0 65 0;
#X connect 68 0 59 0;
#X connect 69 0 68 0;
#X connect 70 0 69 0;
#X connect 70 0 73 0;
#X connect 70 1 68 1;
#X connect 71 0 72 0;
#X connect 72 0 74 1;
#X connect 72 0 80 0;
#X connect 73 0 71 0;
#X connect 73 0 74 0;
#X connect 74 0 75 0;
#X connect 80 0 81 0;
