#N canvas 523 370 450 255 10;
#X msg 69 170 draw line;
#X obj 133 114 gemhead;
#X floatatom 147 175 5 -5 5 2 size - -;
#X floatatom 157 203 5 0 20 2 slices - -;
#X floatatom 232 246 5 0 20 2 thickness - -;
#X obj 134 263 torus 1;
#X obj 68 146 r bang;
#X floatatom 384 114 5 0 0 0 - - -;
#X obj 133 137 rotateXYZ;
#X obj 54 101 loadbang;
#X obj 207 151 r slices;
#X msg 231 212 0;
#X obj 332 77 inlet;
#X obj 386 76 inlet;
#X obj 93 12 * 1.41421;
#X obj 93 39 / 2;
#X obj 335 245 outlet;
#X connect 0 0 5 0;
#X connect 1 0 8 0;
#X connect 2 0 5 1;
#X connect 3 0 5 2;
#X connect 4 0 5 3;
#X connect 6 0 0 0;
#X connect 7 0 8 3;
#X connect 8 0 5 0;
#X connect 9 0 0 0;
#X connect 9 0 11 0;
#X connect 10 0 3 0;
#X connect 11 0 4 0;
#X connect 12 0 2 0;
#X connect 13 0 7 0;
#X connect 14 0 15 0;
#X connect 15 0 2 0;
