#N canvas 134 906 739 620 10;
#X msg -902 -154 draw line;
#X obj -825 -279 gemhead;
#X floatatom -779 -99 5 -5 5 2 size - -;
#X floatatom -759 -67 5 0 20 2 slices - -;
#X floatatom -704 -45 5 0 20 2 thickness - -;
#X obj -802 -28 torus 1;
#X obj -895 -181 r bang;
#X floatatom -715 -170 5 0 0 0 - - -;
#X obj -802 -154 rotateXYZ;
#X obj -919 -220 loadbang;
#X obj -729 -140 r slices;
#X msg -705 -79 0;
#X obj -713 -234 inlet;
#X obj -846 -242 inlet;
#X floatatom -758 44 5 0 0 0 - - -;
#X obj -746 150 * 2;
#X obj -746 128 sin;
#X floatatom -746 193 5 0 0 0 - - -;
#X obj -746 172 *;
#X obj -746 106 /;
#X msg -765 85 3.14;
#X obj -758 64 t b f;
#X obj -892 131 /;
#X floatatom -892 162 5 0 0 0 - - -;
#X msg -907 91 360;
#X obj -907 190 -;
#X floatatom -907 215 5 0 0 0 - - -;
#X text -891 44 number of segments >;
#X obj -800 262 *;
#X floatatom -800 285 5 0 0 0 - - -;
#X obj -800 238 t f f;
#X obj -746 264 *;
#X floatatom -746 291 5 0 0 0 - - -;
#X obj -746 239 t f f;
#X obj -761 313 -;
#X floatatom -761 338 5 0 0 0 - - -;
#X obj -761 364 sqrt;
#X floatatom -761 388 5 0 0 0 - - -;
#X floatatom -717 151 5 0 0 0 - - -;
#X text -680 152 <--radius R1;
#X text -856 392 radius R2 -->;
#X text -909 339 obsah [] 2 odvesny -->;
#X text -933 284 obsah [] prepony -->;
#X text -706 289 <-- obsah [] 1 odvesny;
#X text -854 162 <-- outer angle;
#X text -709 193 <-- side length;
#X obj -882 101 t b f;
#X obj -761 410 outlet;
#X obj -746 215 / 2;
#X text -539 39 R2 = R1 * (cos beta);
#X text -539 59 angle beta:;
#X obj -752 -196 t b;
#X obj -592 -237 r slices;
#X obj -802 -255 translateXYZ;
#X obj -766 -282 r x;
#X obj -739 -282 r y;
#X connect 0 0 5 0;
#X connect 1 0 53 0;
#X connect 2 0 5 1;
#X connect 3 0 5 2;
#X connect 4 0 5 3;
#X connect 6 0 0 0;
#X connect 7 0 8 3;
#X connect 8 0 5 0;
#X connect 9 0 0 0;
#X connect 9 0 11 0;
#X connect 10 0 3 0;
#X connect 11 0 4 0;
#X connect 12 0 7 0;
#X connect 13 0 2 0;
#X connect 13 0 38 0;
#X connect 13 0 51 0;
#X connect 14 0 21 0;
#X connect 14 0 46 0;
#X connect 15 0 18 0;
#X connect 16 0 15 0;
#X connect 17 0 48 0;
#X connect 18 0 17 0;
#X connect 19 0 16 0;
#X connect 20 0 19 0;
#X connect 21 0 20 0;
#X connect 21 0 24 0;
#X connect 21 0 38 0;
#X connect 21 1 19 1;
#X connect 22 0 23 0;
#X connect 23 0 25 1;
#X connect 24 0 22 0;
#X connect 24 0 25 0;
#X connect 25 0 26 0;
#X connect 28 0 29 0;
#X connect 29 0 34 0;
#X connect 30 0 28 0;
#X connect 30 1 28 1;
#X connect 31 0 32 0;
#X connect 32 0 34 1;
#X connect 33 0 31 0;
#X connect 33 1 31 1;
#X connect 34 0 35 0;
#X connect 35 0 36 0;
#X connect 36 0 37 0;
#X connect 37 0 47 0;
#X connect 38 0 18 1;
#X connect 38 0 30 0;
#X connect 46 0 22 0;
#X connect 46 1 22 1;
#X connect 48 0 33 0;
#X connect 51 0 7 0;
#X connect 52 0 14 0;
#X connect 52 0 51 0;
#X connect 53 0 8 0;
#X connect 54 0 53 1;
#X connect 55 0 53 2;
