#N canvas 503 1249 1096 774 10;
#X obj -171 -4 cnv 15 100 60 empty empty empty 20 12 0 14 -195568 -66577
0;
#N canvas -2 -4 450 300 gemwin 0;
#X obj 132 136 gemwin;
#X obj 67 89 outlet;
#X obj 67 10 inlet;
#X obj 67 41 route create;
#X msg 67 70 set destroy;
#X msg 142 68 set create;
#X msg 198 112 destroy;
#X msg 132 112 create \, 1;
#X connect 2 0 3 0;
#X connect 3 0 4 0;
#X connect 3 0 7 0;
#X connect 3 1 5 0;
#X connect 3 1 6 0;
#X connect 4 0 1 0;
#X connect 5 0 1 0;
#X connect 6 0 0 0;
#X connect 7 0 0 0;
#X restore -166 35 pd gemwin;
#X msg -166 16 destroy;
#X text -170 -5 Create window:;
#X obj -62 -4 loadbang;
#X obj -62 21 s bang;
#X obj 301 3 hradio 15 1 0 8 empty empty empty 0 -8 0 10 -262144 -1
-1 6;
#X obj -1 -4 bng 15 250 50 0 empty empty empty 17 7 0 10 -262144 -1
-1;
#X obj 298 63 s slices;
#X floatatom 257 59 5 0 0 0 - - -;
#X floatatom 259 2 5 0 0 0 - - -;
#X floatatom 234 218 5 0 0 0 - - -;
#X floatatom 452 403 5 0 0 0 - - -;
#X floatatom 311 499 5 0 0 0 - - -;
#X floatatom 351 497 5 0 0 0 - - -;
#X floatatom 481 70 5 0 0 0 - - -;
#X obj 527 104 /;
#X floatatom 527 133 5 0 0 0 - - -;
#X floatatom 527 49 5 0 0 0 - - -;
#X obj 527 69 t b f;
#X obj 527 28 * 2;
#X floatatom -36 648 5 0 0 0 - - -;
#X msg -105 649 draw line;
#X obj -154 647 gemhead;
#X obj -140 687 circle 3;
#X obj -105 626 loadbang;
#X obj -163 626 tgl 15 0 empty empty empty 17 7 0 10 -262144 -1 -1
1 1;
#X obj 331 35 t b;
#X msg 480 47 360;
#X text -175 82 ( square root (slices / 2) / 2);
#X text -173 63 diagonal square = a × sqrt / 2;
#X floatatom -46 552 5 0 0 0 - - -;
#X msg -115 553 draw line;
#X obj -164 551 gemhead;
#X obj -150 591 circle 3;
#X obj -115 530 loadbang;
#X obj -173 530 tgl 15 0 empty empty empty 17 7 0 10 -262144 -1 -1
1 1;
#X obj -39 600 - 0.46;
#X floatatom 20 544 5 0 0 0 - - -;
#X obj -12 573 t b f;
#X floatatom 271 90 5 0 0 0 - - -;
#X floatatom 528 2 5 0 0 0 - - -;
#X floatatom 353 133 5 0 0 0 - - -;
#X obj 392 177 /;
#X floatatom 388 204 5 0 0 0 - - -;
#X floatatom 430 122 5 0 0 0 - - -;
#X obj 399 148 t b f;
#X msg 347 220 180;
#X obj 377 256 -;
#X floatatom 370 286 5 0 0 0 - - -;
#X floatatom 115 457 5 0 0 0 - - -;
#X obj 115 480 * 2;
#X obj 137 551 /;
#X obj 125 513 t b f;
#X floatatom 138 576 5 0 0 0 - - -;
#X text -174 102 Length of the side of the polygon: a = 2 * r * sin
(PI / n);
#X text 141 216 radius R1 ==>>;
#X msg 612 92 draw line;
#X obj 603 176 polygon 3;
#X obj 603 57 gemhead;
#X obj 738 46 t b f;
#X obj 778 46 t b f;
#X floatatom 710 8 5 0 0 0 - - -;
#X floatatom 752 10 5 0 0 0 - - -;
#X floatatom 793 8 5 0 0 0 - - -;
#X msg 660 27 0 0 0;
#X msg 715 106 \$1 \$2 \$3;
#X obj 714 82 pack f f f;
#X obj 868 46 t b f;
#X obj 908 46 t b f;
#X floatatom 840 8 5 0 0 0 - - -;
#X floatatom 882 10 5 0 0 0 - - -;
#X floatatom 923 8 5 0 0 0 - - -;
#X msg 845 106 \$1 \$2 \$3;
#X obj 844 82 pack f f f;
#X obj 245 431 rect_radius;
#X obj 245 408 r slices;
#X floatatom 222 479 5 0 0 0 - - -;
#X obj 313 520 mnoho2 3;
#X obj 452 429 mnoho2 3;
#X obj 235 586 rect_radius;
#X obj 235 563 r slices;
#X floatatom 212 634 5 0 0 0 - - -;
#X connect 1 0 2 0;
#X connect 2 0 1 0;
#X connect 4 0 5 0;
#X connect 6 0 27 0;
#X connect 6 0 8 0;
#X connect 7 0 5 0;
#X connect 11 0 31 0;
#X connect 11 0 13 0;
#X connect 12 0 79 1;
#X connect 13 0 78 0;
#X connect 15 0 16 0;
#X connect 16 0 17 0;
#X connect 17 0 14 0;
#X connect 18 0 19 0;
#X connect 19 0 16 0;
#X connect 19 1 16 1;
#X connect 20 0 18 0;
#X connect 21 0 24 1;
#X connect 22 0 24 0;
#X connect 23 0 24 0;
#X connect 25 0 22 0;
#X connect 26 0 23 0;
#X connect 27 0 11 0;
#X connect 27 0 28 0;
#X connect 28 0 15 0;
#X connect 31 0 34 1;
#X connect 31 0 37 0;
#X connect 32 0 34 0;
#X connect 33 0 34 0;
#X connect 35 0 32 0;
#X connect 36 0 33 0;
#X connect 38 0 39 0;
#X connect 39 0 37 0;
#X connect 39 1 37 1;
#X connect 40 0 8 0;
#X connect 41 0 20 0;
#X connect 42 0 43 0;
#X connect 43 0 44 0;
#X connect 44 0 48 1;
#X connect 45 0 46 0;
#X connect 46 0 43 0;
#X connect 46 1 43 1;
#X connect 47 0 48 0;
#X connect 48 0 49 0;
#X connect 50 0 51 0;
#X connect 51 0 53 0;
#X connect 52 0 54 0;
#X connect 53 0 52 0;
#X connect 53 1 52 1;
#X connect 57 0 58 0;
#X connect 59 0 58 0;
#X connect 60 0 67 0;
#X connect 60 1 67 1;
#X connect 61 0 67 0;
#X connect 61 1 67 2;
#X connect 62 0 67 0;
#X connect 63 0 60 0;
#X connect 64 0 61 0;
#X connect 65 0 58 1;
#X connect 66 0 58 2;
#X connect 67 0 66 0;
#X connect 68 0 74 0;
#X connect 68 1 74 1;
#X connect 69 0 74 0;
#X connect 69 1 74 2;
#X connect 70 0 74 0;
#X connect 71 0 68 0;
#X connect 72 0 69 0;
#X connect 73 0 58 3;
#X connect 74 0 73 0;
#X connect 75 0 13 0;
#X connect 75 0 77 0;
#X connect 76 0 75 0;
#X connect 78 0 80 1;
#X connect 80 0 82 0;
#X connect 81 0 80 0;
#X connect 82 0 21 0;
