#N canvas 68 953 774 505 10;
#X floatatom 23 -124 5 0 0 0 - - -;
#X floatatom 74 -126 5 0 0 0 - - -;
#X obj 29 -103 mnoho2 3;
#X obj 74 -148 r one;
#X floatatom 45 -81 5 0 0 0 - - -;
#X floatatom 90 -81 5 0 0 0 - - -;
#X floatatom 59 -37 5 0 0 0 - - -;
#X floatatom 104 -37 5 0 0 0 - - -;
#X obj 104 -59 r one;
#X floatatom 75 8 5 0 0 0 - - -;
#X floatatom 120 8 5 0 0 0 - - -;
#X obj 90 -103 r two;
#X obj 120 -14 r two;
#X floatatom 83 56 5 0 0 0 - - -;
#X floatatom 134 54 5 0 0 0 - - -;
#X obj 134 32 r one;
#X floatatom 105 99 5 0 0 0 - - -;
#X floatatom 150 99 5 0 0 0 - - -;
#X floatatom 119 143 5 0 0 0 - - -;
#X floatatom 164 143 5 0 0 0 - - -;
#X obj 164 121 r one;
#X floatatom 135 188 5 0 0 0 - - -;
#X floatatom 180 188 5 0 0 0 - - -;
#X obj 150 77 r two;
#X obj 180 166 r two;
#X obj 45 -58 mnoho2 3;
#X obj 59 -14 mnoho2 3;
#X obj 75 31 mnoho2 3;
#X obj 89 77 mnoho2 3;
#X obj 105 122 mnoho2 3;
#X obj 119 166 mnoho2 3;
#X obj 135 211 mnoho2 3;
#X floatatom 144 232 5 0 0 0 - - -;
#X floatatom 195 230 5 0 0 0 - - -;
#X obj 150 253 mnoho2 3;
#X obj 195 208 r one;
#X floatatom 166 275 5 0 0 0 - - -;
#X floatatom 211 275 5 0 0 0 - - -;
#X obj 211 253 r two;
#X obj 166 298 mnoho2 3;
#N canvas 59 1196 450 300 helpers 0;
#X msg -70 8 draw line;
#X obj -79 92 polygon 3;
#X obj -79 -27 gemhead;
#X obj 56 -38 t b f;
#X obj 96 -38 t b f;
#X floatatom 28 -76 5 0 0 0 - - -;
#X floatatom 70 -74 5 0 0 0 - - -;
#X floatatom 111 -76 5 0 0 0 - - -;
#X msg -22 -57 0 0 0;
#X msg 33 22 \$1 \$2 \$3;
#X obj 32 -2 pack f f f;
#X obj 186 -38 t b f;
#X obj 226 -38 t b f;
#X floatatom 158 -76 5 0 0 0 - - -;
#X floatatom 200 -74 5 0 0 0 - - -;
#X floatatom 241 -76 5 0 0 0 - - -;
#X msg 163 22 \$1 \$2 \$3;
#X obj 162 -2 pack f f f;
#X connect 0 0 1 0;
#X connect 2 0 1 0;
#X connect 3 0 10 0;
#X connect 3 1 10 1;
#X connect 4 0 10 0;
#X connect 4 1 10 2;
#X connect 5 0 10 0;
#X connect 6 0 3 0;
#X connect 7 0 4 0;
#X connect 8 0 1 1;
#X connect 9 0 1 2;
#X connect 10 0 9 0;
#X connect 11 0 17 0;
#X connect 11 1 17 1;
#X connect 12 0 17 0;
#X connect 12 1 17 2;
#X connect 13 0 17 0;
#X connect 14 0 11 0;
#X connect 15 0 12 0;
#X connect 16 0 1 3;
#X connect 17 0 16 0;
#X restore -190 -64 pd helpers;
#X connect 0 0 2 0;
#X connect 1 0 2 1;
#X connect 2 0 4 0;
#X connect 3 0 1 0;
#X connect 4 0 25 0;
#X connect 5 0 25 1;
#X connect 6 0 26 0;
#X connect 7 0 26 1;
#X connect 8 0 7 0;
#X connect 9 0 27 0;
#X connect 10 0 27 1;
#X connect 11 0 5 0;
#X connect 12 0 10 0;
#X connect 13 0 28 0;
#X connect 14 0 28 1;
#X connect 15 0 14 0;
#X connect 16 0 29 0;
#X connect 17 0 29 1;
#X connect 18 0 30 0;
#X connect 19 0 30 1;
#X connect 20 0 19 0;
#X connect 21 0 31 0;
#X connect 22 0 31 1;
#X connect 23 0 17 0;
#X connect 24 0 22 0;
#X connect 25 0 6 0;
#X connect 26 0 9 0;
#X connect 27 0 13 0;
#X connect 28 0 16 0;
#X connect 29 0 18 0;
#X connect 30 0 21 0;
#X connect 31 0 32 0;
#X connect 32 0 34 0;
#X connect 33 0 34 1;
#X connect 34 0 36 0;
#X connect 35 0 33 0;
#X connect 36 0 39 0;
#X connect 37 0 39 1;
#X connect 38 0 37 0;
